<?xml version="1.0" encoding="UTF-8" standalone="no"?>
<!DOCTYPE svg PUBLIC "-//W3C//DTD SVG 1.1//EN" "http://www.w3.org/Graphics/SVG/1.1/DTD/svg11.dtd">
<svg xmlns="http://www.w3.org/2000/svg" xmlns:xlink="http://www.w3.org/1999/xlink" version="1.1" width="1920pt" height="1080pt" viewBox="0 0 1920 1080">
<g enable-background="new">
<path transform="matrix(.2,0,0,.2,1656,960)" d="M 211.9 68.8 L 159.7 68.8 L 159.7 147.6 L 242.4 147.6 L 242.4 99.3 C 242.4 82.5 228.8 68.8 211.9 68.8 Z " fill="#428cff"/>
<path transform="matrix(.2,0,0,.2,1656,960)" d="M 242.4 147.6 L 159.7 147.6 L 159.7 228.8 L 211.9 228.8 C 228.7 228.8 242.4 215.1 242.4 198.3 L 242.4 147.6 Z " fill="#2670de"/>
<path transform="matrix(.2,0,0,.2,1656,960)" d="M 159.7 68.8 L 113.1 68.8 C 96.3 68.8 82.6 82.5 82.6 99.3 L 82.6 198.3 C 82.6 215.1 96.3 228.8 113.1 228.8 L 159.7 228.8 L 159.7 68.8 Z " fill="#2161cf"/>
<path transform="matrix(.2,0,0,.2,1656,960)" d="M 135.9 165.1 L 113.9 165.1 C 110.5 165.1 107.8 162.4 107.8 159 L 107.8 137 C 107.8 133.6 110.5 130.9 113.9 130.9 L 135.9 130.9 C 139.3 130.9 142 133.6 142 137 L 142 159 C 142 162.4 139.2 165.1 135.9 165.1 Z M 185 92.8 L 207 92.8 C 210.4 92.8 213.1 95.5 213.1 98.9 L 213.1 120.9 C 213.1 124.299999 210.4 127 207 127 L 185 127 C 181.6 127 178.9 124.299999 178.9 120.9 L 178.9 98.9 C 178.9 95.5 181.7 92.8 185 92.8 Z M 185 171 L 207 171 C 210.4 171 213.1 173.7 213.1 177.1 L 213.1 199.1 C 213.1 202.5 210.4 205.2 207 205.2 L 185 205.2 C 181.6 205.2 178.9 202.5 178.9 199.1 L 178.9 177.1 C 178.9 173.7 181.7 171 185 171 Z " fill="#ffffff"/>
<path transform="matrix(.2,0,0,.2,1656,960)" d="M 126.076 151.65 L 192.116 103.89 L 196.862 110.454 L 130.823 158.214 Z " fill="#ffffff"/>
<path transform="matrix(.2,0,0,.2,1656,960)" d="M 125.826999 143.874 L 130.8 137.48 L 194.819 187.268 L 189.846 193.662 Z " fill="#ffffff"/>
<path transform="matrix(.2,0,0,.2,1656,960)" d="M 344.9 182.1 L 335.9 182.1 L 335.9 175.3 L 335.7 175.3 C 334 177.8 331.6 179.8 328.6 181.2 C 325.6 182.6 322.5 183.3 319.3 183.3 C 315.6 183.3 312.3 182.7 309.4 181.4 C 306.4 180.1 303.9 178.4 301.8 176.1 C 299.7 173.8 298.1 171.2 297 168.2 C 295.9 165.2 295.3 161.9 295.3 158.4 C 295.3 154.9 295.9 151.6 297 148.6 C 298.1 145.6 299.7 142.9 301.8 140.7 C 303.9 138.5 306.4 136.7 309.4 135.5 C 312.4 134.2 315.7 133.6 319.3 133.6 C 322.7 133.6 325.9 134.3 328.9 135.7 C 331.9 137.1 334.2 139.1 335.8 141.5 L 336 141.5 L 336 106.6 L 345 106.6 L 345 182.1 L 344.9 182.1 Z M 320.3 174.9 C 322.7 174.9 324.9 174.5 326.8 173.7 C 328.7 172.9 330.4 171.7 331.7 170.3 C 333 168.9 334.1 167.1 334.8 165.1 C 335.5 163.1 335.9 160.9 335.9 158.5 C 335.9 156.1 335.5 153.9 334.8 151.9 C 334.1 149.9 333 148.1 331.7 146.7 C 330.4 145.3 328.7 144.1 326.8 143.3 C 324.9 142.5 322.7 142.1 320.3 142.1 C 317.9 142.1 315.7 142.5 313.8 143.3 C 311.9 144.1 310.2 145.3 308.9 146.7 C 307.6 148.1 306.5 149.9 305.8 151.9 C 305.1 153.9 304.7 156.1 304.7 158.5 C 304.7 160.9 305.1 163.1 305.8 165.1 C 306.5 167.1 307.6 168.9 308.9 170.3 C 310.2 171.7 311.9 172.9 313.8 173.7 C 315.8 174.5 317.9 174.9 320.3 174.9 Z M 358.4 106.6 L 367.4 106.6 L 367.4 141.5 L 367.6 141.5 C 369.2 139 371.5 137.1 374.5 135.7 C 377.5 134.3 380.7 133.6 384.1 133.6 C 387.8 133.6 391.1 134.2 394 135.5 C 397 136.8 399.5 138.5 401.6 140.7 C 403.7 142.9 405.3 145.6 406.4 148.6 C 407.5 151.6 408.1 154.9 408.1 158.4 C 408.1 161.9 407.5 165.2 406.4 168.2 C 405.3 171.2 403.7 173.8 401.6 176.1 C 399.5 178.4 397 180.1 394 181.4 C 391 182.7 387.7 183.3 384.1 183.3 C 380.9 183.3 377.8 182.6 374.8 181.2 C 371.8 179.8 369.4 177.8 367.7 175.3 L 367.5 175.3 L 367.5 182.1 L 358.5 182.1 L 358.5 106.6 L 358.4 106.6 Z M 383 174.9 C 385.4 174.9 387.6 174.5 389.5 173.7 C 391.4 172.9 393.1 171.7 394.4 170.3 C 395.7 168.9 396.8 167.1 397.5 165.1 C 398.2 163.1 398.6 160.9 398.6 158.5 C 398.6 156.1 398.2 153.9 397.5 151.9 C 396.8 149.9 395.7 148.1 394.4 146.7 C 393.1 145.3 391.4 144.1 389.5 143.3 C 387.6 142.5 385.4 142.1 383 142.1 C 380.6 142.1 378.4 142.5 376.5 143.3 C 374.6 144.1 372.9 145.3 371.6 146.7 C 370.3 148.1 369.2 149.9 368.5 151.9 C 367.8 153.9 367.4 156.1 367.4 158.5 C 367.4 160.9 367.8 163.1 368.5 165.1 C 369.2 167.1 370.3 168.9 371.6 170.3 C 372.9 171.7 374.6 172.9 376.5 173.7 C 378.4 174.5 380.6 174.9 383 174.9 Z M 466.9 182.1 L 457.9 182.1 L 457.9 175.3 L 457.7 175.3 C 456 177.8 453.6 179.8 450.6 181.2 C 447.6 182.6 444.5 183.3 441.3 183.3 C 437.6 183.3 434.3 182.7 431.4 181.4 C 428.4 180.1 425.9 178.4 423.8 176.1 C 421.7 173.8 420.1 171.2 419 168.2 C 417.9 165.2 417.3 161.9 417.3 158.4 C 417.3 154.9 417.9 151.6 419 148.6 C 420.1 145.6 421.7 142.9 423.8 140.7 C 425.9 138.5 428.4 136.7 431.4 135.5 C 434.4 134.2 437.7 133.6 441.3 133.6 C 444.7 133.6 447.9 134.3 450.9 135.7 C 453.9 137.1 456.2 139.1 457.8 141.5 L 458 141.5 L 458 106.6 L 467 106.6 L 467 182.1 L 466.9 182.1 Z M 442.3 174.9 C 444.7 174.9 446.9 174.5 448.8 173.7 C 450.7 172.9 452.4 171.7 453.7 170.3 C 455 168.9 456.1 167.1 456.8 165.1 C 457.5 163.1 457.9 160.9 457.9 158.5 C 457.9 156.1 457.5 153.9 456.8 151.9 C 456.1 149.9 455 148.1 453.7 146.7 C 452.4 145.3 450.7 144.1 448.8 143.3 C 446.9 142.5 444.7 142.1 442.3 142.1 C 439.9 142.1 437.7 142.5 435.8 143.3 C 433.9 144.1 432.2 145.3 430.9 146.7 C 429.6 148.1 428.5 149.9 427.8 151.9 C 427.1 153.9 426.7 156.1 426.7 158.5 C 426.7 160.9 427.1 163.1 427.8 165.1 C 428.5 167.1 429.6 168.9 430.9 170.3 C 432.2 171.7 433.9 172.9 435.8 173.7 C 437.7 174.5 439.9 174.9 442.3 174.9 Z M 479 117.8 C 479 116 479.6 114.5 480.9 113.2 C 482.2 111.9 483.7 111.3 485.5 111.3 C 487.3 111.3 488.8 111.9 490.1 113.2 C 491.4 114.5 492 116 492 117.8 C 492 119.6 491.4 121.1 490.1 122.4 C 488.8 123.7 487.3 124.3 485.5 124.3 C 483.7 124.3 482.2 123.7 480.9 122.4 C 479.7 121.1 479 119.6 479 117.8 Z M 481.1 134.8 L 490.1 134.8 L 490.1 182.1 L 481.1 182.1 L 481.1 134.8 Z M 504.6 140.5 C 507.1 138.2 510.1 136.4 513.4 135.3 C 516.7 134.1 520.1 133.6 523.4 133.6 C 526.9 133.6 529.8 134 532.3 134.9 C 534.8 135.8 536.8 136.9 538.4 138.4 C 540 139.9 541.2 141.5 541.9 143.4 C 542.7 145.3 543 147.3 543 149.3 L 543 173.5 C 543 175.2 543 176.7 543.1 178.1 C 543.2 179.5 543.3 180.8 543.4 182.1 L 535.4 182.1 C 535.2 179.7 535.1 177.3 535.1 174.9 L 535 174.9 C 533 178 530.6 180.1 527.9 181.4 C 525.2 182.7 522 183.3 518.4 183.3 C 516.2 183.3 514.1 183 512.1 182.4 C 510.1 181.8 508.4 180.9 506.9 179.7 C 505.4 178.5 504.2 177 503.4 175.3 C 502.5 173.5 502.1 171.5 502.1 169.2 C 502.1 166.1 502.8 163.6 504.1 161.5 C 505.5 159.4 507.3 157.8 509.7 156.5 C 512.1 155.2 514.8 154.3 518 153.7 C 521.2 153.1 524.5 152.9 528.1 152.9 L 534.7 152.9 L 534.7 150.9 C 534.7 149.7 534.5 148.5 534 147.3 C 533.5 146.1 532.8 145 531.9 144.1 C 531 143.1 529.8 142.4 528.4 141.8 C 527 141.2 525.3 141 523.4 141 C 521.7 141 520.2 141.2 518.9 141.5 C 517.6 141.8 516.4 142.2 515.4 142.7 C 514.3 143.2 513.4 143.8 512.5 144.4 C 511.6 145.1 510.8 145.7 510 146.3 L 504.6 140.5 Z M 529.9 159.3 C 527.8 159.3 525.6 159.4 523.4 159.6 C 521.2 159.8 519.1 160.3 517.3 160.9 C 515.5 161.6 514 162.5 512.8 163.7 C 511.6 164.9 511.1 166.4 511.1 168.3 C 511.1 171 512 173 513.8 174.2 C 515.6 175.4 518.1 176 521.2 176 C 523.7 176 525.8 175.6 527.5 174.8 C 529.2 174 530.6 172.9 531.7 171.6 C 532.8 170.3 533.5 168.8 534 167.2 C 534.5 165.6 534.7 164 534.7 162.4 L 534.7 159.4 L 529.9 159.4 L 529.9 159.3 Z M 603.6 181.7 C 603.6 185.3 603 188.6 601.8 191.5 C 600.6 194.5 598.8 197 596.6 199.2 C 594.3 201.4 591.6 203 588.4 204.2 C 585.2 205.4 581.7 206 577.8 206 C 573.3 206 569.1 205.4 565.4 204.1 C 561.6 202.8 558.1 200.6 554.7 197.5 L 560.8 189.9 C 563.1 192.4 565.7 194.3 568.4 195.6 C 571.1 196.9 574.2 197.5 577.7 197.5 C 581 197.5 583.8 197 586 196.1 C 588.2 195.1 589.9 193.9 591.2 192.4 C 592.5 190.9 593.4 189.1 593.9 187.2 C 594.4 185.2 594.7 183.3 594.7 181.3 L 594.7 174.3 L 594.4 174.3 C 592.7 177.2 590.3 179.3 587.4 180.6 C 584.4 182 581.3 182.6 578.1 182.6 C 574.6 182.6 571.4 182 568.5 180.8 C 565.5 179.6 563 177.9 560.9 175.7 C 558.8 173.5 557.1 171 555.9 168 C 554.7 165 554.1 161.8 554.1 158.4 C 554.1 154.9 554.7 151.7 555.8 148.7 C 556.9 145.7 558.5 143 560.6 140.8 C 562.7 138.5 565.2 136.8 568.2 135.5 C 571.2 134.2 574.5 133.6 578.1 133.6 C 581.3 133.6 584.4 134.3 587.4 135.7 C 590.4 137.1 592.8 139.1 594.5 141.6 L 594.7 141.6 L 594.7 134.8 L 603.7 134.8 L 603.6 181.7 Z M 579.1 141.9 C 576.7 141.9 574.5 142.3 572.6 143.1 C 570.7 143.9 569 145.1 567.7 146.5 C 566.4 147.9 565.3 149.7 564.6 151.7 C 563.9 153.7 563.5 155.9 563.5 158.3 C 563.5 163.1 564.9 166.9 567.7 169.8 C 570.5 172.7 574.3 174.1 579.1 174.1 C 583.9 174.1 587.7 172.7 590.5 169.8 C 593.3 166.9 594.7 163.1 594.7 158.3 C 594.7 155.9 594.3 153.7 593.6 151.7 C 592.9 149.7 591.8 147.9 590.5 146.5 C 589.2 145.1 587.5 143.9 585.6 143.1 C 583.6 142.4 581.5 141.9 579.1 141.9 Z M 617.2 134.8 L 626.2 134.8 L 626.2 142.1 L 626.4 142.1 C 627 140.8 627.8 139.7 628.8 138.7 C 629.8 137.7 630.9 136.8 632.1 136.1 C 633.3 135.4 634.7 134.8 636.1 134.4 C 637.6 134 639 133.8 640.5 133.8 C 642 133.8 643.3 134 644.5 134.4 L 644.1 144.1 C 643.4 143.9 642.6 143.7 641.9 143.6 C 641.2 143.5 640.4 143.4 639.7 143.4 C 635.3 143.4 631.9 144.6 629.6 147.1 C 627.3 149.6 626.1 153.4 626.1 158.6 L 626.1 182.4 L 617.1 182.4 L 617.2 134.8 Z M 654.3 140.5 C 656.8 138.2 659.8 136.4 663.1 135.3 C 666.4 134.1 669.8 133.6 673.1 133.6 C 676.6 133.6 679.5 134 682 134.9 C 684.5 135.8 686.5 136.9 688.1 138.4 C 689.7 139.9 690.9 141.5 691.6 143.4 C 692.4 145.3 692.7 147.3 692.7 149.3 L 692.7 173.5 C 692.7 175.2 692.7 176.7 692.8 178.1 C 692.9 179.5 693 180.8 693.1 182.1 L 685.1 182.1 C 684.9 179.7 684.8 177.3 684.8 174.9 L 684.6 174.9 C 682.6 178 680.2 180.1 677.5 181.4 C 674.8 182.7 671.6 183.3 668 183.3 C 665.8 183.3 663.7 183 661.7 182.4 C 659.7 181.8 658 180.9 656.5 179.7 C 655 178.5 653.8 177 653 175.3 C 652.1 173.5 651.7 171.5 651.7 169.2 C 651.7 166.1 652.4 163.6 653.7 161.5 C 655.1 159.4 656.9 157.8 659.3 156.5 C 661.7 155.2 664.4 154.3 667.6 153.7 C 670.8 153.1 674.1 152.9 677.7 152.9 L 684.3 152.9 L 684.3 150.9 C 684.3 149.7 684.1 148.5 683.6 147.3 C 683.1 146.1 682.4 145 681.5 144.1 C 680.6 143.1 679.4 142.4 678 141.8 C 676.6 141.2 674.9 141 673 141 C 671.3 141 669.8 141.2 668.5 141.5 C 667.2 141.8 666 142.2 665 142.7 C 663.9 143.2 663 143.8 662.1 144.4 C 661.2 145.1 660.4 145.7 659.6 146.3 L 654.3 140.5 Z M 679.7 159.3 C 677.6 159.3 675.4 159.4 673.2 159.6 C 671 159.8 668.9 160.3 667.1 160.9 C 665.3 161.6 663.8 162.5 662.6 163.7 C 661.4 164.9 660.9 166.4 660.9 168.3 C 660.9 171 661.8 173 663.6 174.2 C 665.4 175.4 667.9 176 671 176 C 673.5 176 675.6 175.6 677.3 174.8 C 679 174 680.4 172.9 681.5 171.6 C 682.6 170.3 683.3 168.8 683.8 167.2 C 684.3 165.6 684.5 164 684.5 162.4 L 684.5 159.4 L 679.7 159.4 L 679.7 159.3 Z M 705.9 134.8 L 714.3 134.8 L 714.3 142.2 L 714.5 142.2 C 714.7 141.5 715.2 140.7 716 139.7 C 716.8 138.7 717.9 137.8 719.2 136.9 C 720.5 136 722 135.2 723.8 134.6 C 725.6 134 727.5 133.7 729.6 133.7 C 733.1 133.7 736.1 134.4 738.5 135.9 C 740.9 137.4 742.9 139.6 744.4 142.5 C 745.9 139.6 748.1 137.4 750.9 135.9 C 753.7 134.4 756.5 133.7 759.4 133.7 C 763.1 133.7 766.1 134.3 768.4 135.5 C 770.7 136.7 772.6 138.3 773.9 140.2 C 775.2 142.2 776.1 144.4 776.6 146.9 C 777.1 149.4 777.3 152 777.3 154.6 L 777.3 182.2 L 768.3 182.2 L 768.3 155.8 C 768.3 154 768.2 152.3 768 150.6 C 767.8 148.9 767.3 147.5 766.6 146.2 C 765.9 144.9 764.8 143.9 763.5 143.2 C 762.2 142.4 760.4 142.1 758.2 142.1 C 753.9 142.1 750.8 143.4 748.9 146.1 C 747 148.8 746.1 152.2 746.1 156.4 L 746.1 182.3 L 737.1 182.3 L 737.1 157.5 C 737.1 155.2 737 153.2 736.8 151.3 C 736.6 149.4 736.1 147.8 735.4 146.5 C 734.7 145.1 733.7 144.1 732.4 143.3 C 731.1 142.5 729.4 142.2 727.2 142.2 C 725.6 142.2 724.1 142.5 722.6 143.1 C 721.1 143.7 719.8 144.7 718.7 145.9 C 717.6 147.2 716.7 148.8 716 150.7 C 715.3 152.7 715 155 715 157.6 L 715 182.2 L 706 182.2 L 706 134.8 L 705.9 134.8 Z " fill="#2161cf"/>
<path transform="matrix(.2,0,0,.2,1656,960)" d="M 798.1 182.7 C 796.3 182.7 794.8 182.1 793.5 180.8 C 792.2 179.5 791.6 178 791.6 176.2 C 791.6 174.4 792.2 172.9 793.5 171.6 C 794.8 170.3 796.3 169.7 798.1 169.7 C 799.9 169.7 801.4 170.3 802.7 171.6 C 804 172.9 804.6 174.4 804.6 176.2 C 804.6 178 804 179.5 802.7 180.8 C 801.4 182 799.9 182.7 798.1 182.7 Z M 817.3 117.799999 C 817.3 116 817.9 114.5 819.2 113.2 C 820.5 111.9 822 111.299999 823.8 111.299999 C 825.6 111.299999 827.1 111.9 828.4 113.2 C 829.7 114.5 830.3 116 830.3 117.799999 C 830.3 119.6 829.7 121.1 828.4 122.4 C 827.1 123.7 825.6 124.299999 823.8 124.299999 C 822 124.299999 820.5 123.7 819.2 122.4 C 818 121.1 817.3 119.6 817.3 117.799999 Z M 819.4 134.8 L 828.4 134.8 L 828.4 182.1 L 819.4 182.1 L 819.4 134.8 Z M 840.4 158.4 C 840.4 154.9 841 151.7 842.3 148.7 C 843.6 145.7 845.4 143.1 847.6 140.8 C 849.9 138.5 852.5 136.8 855.6 135.5 C 858.7 134.2 862 133.6 865.5 133.6 C 869 133.6 872.3 134.2 875.4 135.5 C 878.5 136.8 881.1 138.6 883.4 140.8 C 885.7 143.1 887.4 145.7 888.7 148.7 C 890 151.7 890.6 154.9 890.6 158.4 C 890.6 161.9 890 165.1 888.7 168.1 C 887.4 171.1 885.6 173.8 883.4 176 C 881.1 178.2 878.5 180 875.4 181.3 C 872.3 182.6 869 183.2 865.5 183.2 C 862 183.2 858.7 182.6 855.6 181.3 C 852.5 180 849.9 178.2 847.6 176 C 845.3 173.8 843.6 171.1 842.3 168.1 C 841.1 165.1 840.4 161.9 840.4 158.4 Z M 850 158.4 C 850 160.8 850.4 163 851.1 165 C 851.8 167 852.9 168.8 854.2 170.2 C 855.5 171.6 857.2 172.8 859.1 173.6 C 861 174.4 863.2 174.8 865.6 174.8 C 868 174.8 870.2 174.4 872.1 173.6 C 874 172.8 875.7 171.6 877 170.2 C 878.3 168.8 879.4 167 880.1 165 C 880.8 163 881.2 160.8 881.2 158.4 C 881.2 156 880.8 153.8 880.1 151.8 C 879.4 149.8 878.3 148 877 146.6 C 875.7 145.2 874 144 872.1 143.2 C 870.2 142.4 868 142 865.6 142 C 863.2 142 861 142.4 859.1 143.2 C 857.2 144 855.5 145.2 854.2 146.6 C 852.9 148 851.8 149.8 851.1 151.8 C 850.4 153.8 850 156 850 158.4 Z " fill="#428cff"/>
<path transform="matrix(1.9352179,0,0,1.9352179,149.66782,23.356377)" stroke-width="3" stroke-linecap="butt" stroke-miterlimit="4" stroke-linejoin="miter" fill="none" stroke="#3da8de" d="M 484.1354 267.5 L 564 267.5 C 568.4183 267.5 572 263.91828 572 259.5 L 572 210.5 C 572 206.08173 575.5817 202.5 580 202.5 L 660 202.5 "/>
<text fill="#d7d7d9" xml:space="preserve" transform="matrix(1.4216176 0 0 1.4216176 -139.90024 -41.59185)" font-size="13.612787" font-family="Helvetica"><tspan y="313.85807" x="1086.0962">1</tspan></text>
<text fill="#d7d7d9" xml:space="preserve" transform="matrix(1.4216176 0 0 1.4216176 -139.90024 -41.59185)" font-size="13.612787" font-family="Helvetica"><tspan y="426.84419" x="872.3351">*</tspan></text>
<path transform="matrix(1.9352179,0,0,1.9352179,149.66782,23.356377)" stroke-width="3" stroke-linecap="butt" stroke-miterlimit="4" stroke-linejoin="miter" fill="none" stroke="#3da8de" d="M 484.1354 296.5 L 576 296.5 C 580.4183 296.5 584 300.08174 584 304.5 L 584 394.5 C 584 398.91828 587.5817 402.5 592 402.5 L 684 402.5 "/>
<text fill="#d7d7d9" xml:space="preserve" transform="matrix(1.4216176 0 0 1.4216176 -139.90024 -41.59185)" font-size="13.612787" font-family="Helvetica"><tspan y="610.6168" x="1118.7669">1</tspan></text>
<text fill="#d7d7d9" xml:space="preserve" transform="matrix(1.4216176 0 0 1.4216176 -139.90024 -41.59185)" font-size="13.612787" font-family="Helvetica"><tspan y="441.81828" x="872.3351">*</tspan></text>
<path transform="matrix(1.9352179,0,0,1.9352179,149.66782,23.356377)" stroke-width="3" stroke-linecap="butt" stroke-miterlimit="4" stroke-linejoin="miter" fill="none" stroke="#3da8de" d="M 134.21875 182.5 L 200 182.5 C 204.41828 182.5 208 186.08173 208 190.5 L 208 230.5 C 208 234.91828 211.58173 238.5 216 238.5 L 288 238.5 "/>
<text fill="#d7d7d9" xml:space="preserve" transform="matrix(1.4216176 0 0 1.4216176 -139.90024 -41.59185)" font-size="13.612787" font-family="Helvetica"><tspan y="387.3671" x="579.7005">1</tspan></text>
<text fill="#d7d7d9" xml:space="preserve" transform="matrix(1.4216176 0 0 1.4216176 -139.90024 -41.59185)" font-size="13.612787" font-family="Helvetica"><tspan y="286.63249" x="396.00099">*</tspan></text>
<path transform="matrix(1.9352179,0,0,1.9352179,149.66782,23.356377)" stroke-width="3" stroke-linecap="butt" stroke-miterlimit="4" stroke-linejoin="miter" fill="none" stroke="#3da8de" d="M 133 326.5 L 200 326.5 C 204.41828 326.5 208 322.91828 208 318.5 L 208 246.5 C 208 242.08173 211.58173 238.5 216 238.5 L 288 238.5 "/>
<text fill="#d7d7d9" xml:space="preserve" transform="matrix(1.4216176 0 0 1.4216176 -139.90024 -41.59185)" font-size="13.612787" font-family="Helvetica"><tspan y="362.8641" x="579.7005">1</tspan></text>
<text fill="#d7d7d9" xml:space="preserve" transform="matrix(1.4216176 0 0 1.4216176 -139.90024 -41.59185)" font-size="13.612787" font-family="Helvetica"><tspan y="507.15965" x="394.34193">*</tspan></text>
<path transform="matrix(1.9352179,0,0,1.9352179,149.66782,23.356377)" stroke-width="3" stroke-linecap="butt" stroke-miterlimit="4" stroke-linejoin="miter" fill="none" stroke="#3da8de" d="M 133 355.5 L 216 355.5 C 220.41828 355.5 224 359.08174 224 363.5 L 224 458.5 C 224 462.91828 227.58173 466.5 232 466.5 L 316 466.5 "/>
<text fill="#d7d7d9" xml:space="preserve" transform="matrix(1.4216176 0 0 1.4216176 -139.90024 -41.59185)" font-size="13.612787" font-family="Helvetica"><tspan y="697.73867" x="617.8163">1</tspan></text>
<text fill="#d7d7d9" xml:space="preserve" transform="matrix(1.4216176 0 0 1.4216176 -139.90024 -41.59185)" font-size="13.612787" font-family="Helvetica"><tspan y="522.1337" x="394.34193">*</tspan></text>
<path transform="matrix(1.9352179,0,0,1.9352179,149.66782,23.356377)" stroke-width="3" stroke-linecap="butt" stroke-miterlimit="4" stroke-linejoin="miter" fill="none" stroke="#3da8de" d="M 485.35417 98.5 L 564 98.5 C 568.4183 98.5 572 102.08172 572 106.5 L 572 194.5 C 572 198.91828 575.5817 202.5 580 202.5 L 660 202.5 "/>
<text fill="#d7d7d9" xml:space="preserve" transform="matrix(1.4216176 0 0 1.4216176 -139.90024 -41.59185)" font-size="13.612787" font-family="Helvetica"><tspan y="338.36109" x="1086.0962">1</tspan></text>
<text fill="#d7d7d9" xml:space="preserve" transform="matrix(1.4216176 0 0 1.4216176 -139.90024 -41.59185)" font-size="13.612787" font-family="Helvetica"><tspan y="172.28507" x="873.99417">*</tspan></text>
<path transform="matrix(1.9352179,0,0,1.9352179,149.66782,23.356377)" stroke-width="3" stroke-linecap="butt" stroke-miterlimit="4" stroke-linejoin="miter" fill="none" stroke="#3da8de" d="M 484.1354 238.5 L 496 238.5 C 500.41828 238.5 504 234.91828 504 230.5 L 504 135.5 C 504 131.08173 500.41828 127.5 496 127.5 L 485.35417 127.5 "/>
<text fill="#d7d7d9" xml:space="preserve" transform="matrix(1.4216176 0 0 1.4216176 -139.90024 -41.59185)" font-size="13.612787" font-family="Helvetica"><tspan y="387.3671" x="871.1985">1</tspan></text>
<text fill="#d7d7d9" xml:space="preserve" transform="matrix(1.4216176 0 0 1.4216176 -139.90024 -41.59185)" font-size="13.612787" font-family="Helvetica"><tspan y="211.76215" x="873.99417">*</tspan></text>
<path transform="matrix(1.9352179,0,0,1.9352179,1426.9115,325.25035)" d="M 0 0 L 213.45833 0 L 213.45833 32 L 0 32 L 0 0 Z " fill="#2c2c2c"/>
<text fill="#ffffff" xml:space="preserve" transform="matrix(1.4216176 0 0 1.4216176 -139.90024 -41.59185)" font-size="17.696625" font-family="Helvetica" font-weight="bold"><tspan y="286.0199" x="1119.8297 1130.6423 1140.4817 1150.321 1157.2051">users</tspan></text>
<path transform="matrix(1.9352179,0,0,1.9352179,1426.9115,387.1773)" d="M 0 0 L 213.45833 0 L 213.45833 29 L 0 29 L 0 0 Z " fill="#4a4d54"/>
<text fill="#d7d7d9" xml:space="preserve" transform="matrix(1.4216176 0 0 1.4216176 -139.90024 -41.59185)" font-size="16.335347" font-family="Helvetica"><tspan y="327.06248" x="1119.8297 1128.9121 1137.9945 1141.621">uuid</tspan></text>
<text fill="#a9a9a9" xml:space="preserve" transform="matrix(1.4216176 0 0 1.4216176 -139.90024 -41.59185)" font-size="16.335347" font-family="Helvetica"><tspan y="327.06248" x="1336.445 1348.239 1360.0331 1364.5744">UUID</tspan></text>
<path transform="matrix(1.9352179,0,0,1.9352179,1426.9115,443.2986)" d="M 0 0 L 213.45833 0 L 213.45833 29 L 0 29 L 0 0 Z " fill="#383840"/>
<text fill="#d7d7d9" xml:space="preserve" transform="matrix(1.4216176 0 0 1.4216176 -139.90024 -41.59185)" font-size="16.335347" font-family="Helvetica"><tspan y="366.53956" x="1119.8297 1128.9121 1137.9945 1142.5358 1151.6182 1156.1594">authId</tspan></text>
<text fill="#a9a9a9" xml:space="preserve" transform="matrix(1.4216176 0 0 1.4216176 -139.90024 -41.59185)" font-size="16.335347" font-family="Helvetica"><tspan y="366.53956" x="1292.8549 1301.0226 1310.105 1315.5447 1323.7124 1332.7948 1341.8772 1347.3169 1352.7566 1361.839 1370.9214">varchar(64)</tspan></text>
<path transform="matrix(1.9352179,0,0,1.9352179,1426.9115,499.41999)" d="M 0 0 L 213.45833 0 L 213.45833 29 L 0 29 L 0 0 Z " fill="#383840"/>
<text fill="#d7d7d9" xml:space="preserve" transform="matrix(1.4216176 0 0 1.4216176 -139.90024 -41.59185)" font-size="16.335347" font-family="Helvetica"><tspan y="406.01664" x="1119.8297 1128.9121 1137.9945 1142.5358 1151.6182 1162.5138 1171.5962 1177.0359 1185.2036 1188.8301 1196.9978">authService</tspan></text>
<text fill="#a9a9a9" xml:space="preserve" transform="matrix(1.4216176 0 0 1.4216176 -139.90024 -41.59185)" font-size="16.335347" font-family="Helvetica"><tspan y="406.01664" x="1292.8549 1301.0226 1310.105 1315.5447 1323.7124 1332.7948 1341.8772 1347.3169 1352.7566 1361.839 1370.9214">varchar(16)</tspan></text>
<path transform="matrix(1.9352179,0,0,1.9352179,1426.9115,555.5413)" d="M 0 0 L 213.45833 0 L 213.45833 29 L 0 29 L 0 0 Z " fill="#383840"/>
<text fill="#d7d7d9" xml:space="preserve" transform="matrix(1.4216176 0 0 1.4216176 -139.90024 -41.59185)" font-size="16.335347" font-family="Helvetica"><tspan y="445.4937" x="1119.8297 1128.9121 1137.9945 1151.6018">name</tspan></text>
<text fill="#a9a9a9" xml:space="preserve" transform="matrix(1.4216176 0 0 1.4216176 -139.90024 -41.59185)" font-size="16.335347" font-family="Helvetica"><tspan y="445.4937" x="1336.429 1344.5967 1349.138 1354.5776 1358.2041 1367.2865">string</tspan></text>
<path transform="matrix(1.9352179,0,0,1.9352179,1426.9115,611.6626)" d="M 0 0 L 213.45833 0 L 213.45833 29 L 0 29 L 0 0 Z " fill="#383840"/>
<text fill="#d7d7d9" xml:space="preserve" transform="matrix(1.4216176 0 0 1.4216176 -139.90024 -41.59185)" font-size="16.335347" font-family="Helvetica"><tspan y="484.9708" x="1119.8297 1123.4562 1131.6239 1142.5195 1151.6019 1165.2092 1168.8357">isAdmin</tspan></text>
<text fill="#a9a9a9" xml:space="preserve" transform="matrix(1.4216176 0 0 1.4216176 -139.90024 -41.59185)" font-size="16.335347" font-family="Helvetica"><tspan y="484.9708" x="1345.49 1354.5724 1363.6548 1372.7372">bool</tspan></text>
<path transform="matrix(1.9352179,0,0,1.9352179,1473.3568,712.29397)" d="M 0 0 L 187.14583 0 L 187.14583 32 L 0 32 L 0 0 Z " fill="#2c2c2c"/>
<text fill="#ffffff" xml:space="preserve" transform="matrix(1.4216176 0 0 1.4216176 -139.90024 -41.59185)" font-size="17.696625" font-family="Helvetica" font-weight="bold"><tspan y="558.27566" x="1152.5004 1162.3397 1172.1791 1178.072 1187.9114 1198.724 1209.5366 1216.4207 1221.3403 1231.1797">categories</tspan></text>
<path transform="matrix(1.9352179,0,0,1.9352179,1473.3568,774.2209)" d="M 0 0 L 187.14583 0 L 187.14583 29 L 0 29 L 0 0 Z " fill="#4a4d54"/>
<text fill="#d7d7d9" xml:space="preserve" transform="matrix(1.4216176 0 0 1.4216176 -139.90024 -41.59185)" font-size="16.335347" font-family="Helvetica"><tspan y="599.31826" x="1152.5004 1161.5828 1170.6652 1184.2725">name</tspan></text>
<text fill="#a9a9a9" xml:space="preserve" transform="matrix(1.4216176 0 0 1.4216176 -139.90024 -41.59185)" font-size="16.335347" font-family="Helvetica"><tspan y="599.31826" x="1285.1444 1293.3121 1302.3945 1307.8342 1316.002 1325.0844 1334.1668 1339.6065 1345.0462 1354.1286 1363.2109">varchar(16)</tspan></text>
<path transform="matrix(1.9352179,0,0,1.9352179,707.0106,394.9182)" d="M 0 0 L 196.1354 0 L 196.1354 32 L 0 32 L 0 0 Z " fill="#2c2c2c"/>
<text fill="#ffffff" xml:space="preserve" transform="matrix(1.4216176 0 0 1.4216176 -139.90024 -41.59185)" font-size="17.696625" font-family="Helvetica" font-weight="bold"><tspan y="335.02595" x="613.434 620.318 630.1573 639.9966 644.91629 654.75558 668.5235">reviews</tspan></text>
<path transform="matrix(1.9352179,0,0,1.9352179,707.0106,456.84516)" d="M 0 0 L 196.1354 0 L 196.1354 29 L 0 29 L 0 0 Z " fill="#4a4d54"/>
<text fill="#d7d7d9" xml:space="preserve" transform="matrix(1.4216176 0 0 1.4216176 -139.90024 -41.59185)" font-size="16.335347" font-family="Helvetica"><tspan y="376.06849" x="613.434 617.0605">id</tspan></text>
<text fill="#a9a9a9" xml:space="preserve" transform="matrix(1.4216176 0 0 1.4216176 -139.90024 -41.59185)" font-size="16.335347" font-family="Helvetica"><tspan y="376.06849" x="826.4405 830.06698 839.1494">int</tspan></text>
<path transform="matrix(1.9352179,0,0,1.9352179,707.0106,512.9665)" d="M 0 0 L 196.1354 0 L 196.1354 29 L 0 29 L 0 0 Z " fill="#4a4d54"/>
<text fill="#d7d7d9" xml:space="preserve" transform="matrix(1.4216176 0 0 1.4216176 -139.90024 -41.59185)" font-size="16.335347" font-family="Helvetica"><tspan y="415.5456" x="613.434 622.5165 631.59896 636.14016 645.2226 654.30508 659.74478 671.5389 683.333 687.8742">authorUUID</tspan></text>
<text fill="#a9a9a9" xml:space="preserve" transform="matrix(1.4216176 0 0 1.4216176 -139.90024 -41.59185)" font-size="16.335347" font-family="Helvetica"><tspan y="415.5456" x="806.46798 818.2621 830.0562 834.5974">UUID</tspan></text>
<path transform="matrix(1.9352179,0,0,1.9352179,707.0106,569.08779)" d="M 0 0 L 196.1354 0 L 196.1354 29 L 0 29 L 0 0 Z " fill="#4a4d54"/>
<text fill="#d7d7d9" xml:space="preserve" transform="matrix(1.4216176 0 0 1.4216176 -139.90024 -41.59185)" font-size="16.335347" font-family="Helvetica"><tspan y="455.02268" x="613.434 621.6017 630.68417 635.22537 644.3078 653.39028 662.4727 667.9124">category</tspan></text>
<text fill="#a9a9a9" xml:space="preserve" transform="matrix(1.4216176 0 0 1.4216176 -139.90024 -41.59185)" font-size="16.335347" font-family="Helvetica"><tspan y="455.02268" x="762.8778 771.0455 780.1279 785.5676 793.7353 802.81777 811.9002 817.3399 822.7796 831.86209 840.9445">varchar(16)</tspan></text>
<path transform="matrix(1.9352179,0,0,1.9352179,707.0106,625.2091)" d="M 0 0 L 196.1354 0 L 196.1354 29 L 0 29 L 0 0 Z " fill="#383840"/>
<text fill="#d7d7d9" xml:space="preserve" transform="matrix(1.4216176 0 0 1.4216176 -139.90024 -41.59185)" font-size="16.335347" font-family="Helvetica"><tspan y="494.49977" x="613.434 617.9752 621.6017 626.1429 629.76937">title</tspan></text>
<text fill="#a9a9a9" xml:space="preserve" transform="matrix(1.4216176 0 0 1.4216176 -139.90024 -41.59185)" font-size="16.335347" font-family="Helvetica"><tspan y="494.49977" x="794.64718 799.18838 802.8148 811.8973 820.06497 824.60617 833.6886 841.85629">tinytext</tspan></text>
<path transform="matrix(1.9352179,0,0,1.9352179,707.0106,681.33047)" d="M 0 0 L 196.1354 0 L 196.1354 29 L 0 29 L 0 0 Z " fill="#383840"/>
<text fill="#d7d7d9" xml:space="preserve" transform="matrix(1.4216176 0 0 1.4216176 -139.90024 -41.59185)" font-size="16.335347" font-family="Helvetica"><tspan y="533.9768" x="613.434 622.5165 631.59896 640.6814">body</tspan></text>
<text fill="#a9a9a9" xml:space="preserve" transform="matrix(1.4216176 0 0 1.4216176 -139.90024 -41.59185)" font-size="16.335347" font-family="Helvetica"><tspan y="533.9768" x="820.06747 824.60867 833.6911 841.85879">text</tspan></text>
<path transform="matrix(1.9352179,0,0,1.9352179,707.0106,737.4517)" d="M 0 0 L 196.1354 0 L 196.1354 29 L 0 29 L 0 0 Z " fill="#383840"/>
<text fill="#d7d7d9" xml:space="preserve" transform="matrix(1.4216176 0 0 1.4216176 -139.90024 -41.59185)" font-size="16.335347" font-family="Helvetica"><tspan y="573.4539" x="613.434 627.0414 636.12387 641.56356">mark</tspan></text>
<text fill="#a9a9a9" xml:space="preserve" transform="matrix(1.4216176 0 0 1.4216176 -139.90024 -41.59185)" font-size="16.335347" font-family="Helvetica"><tspan y="573.4539" x="829.1444 832.7709 841.85336">int</tspan></text>
<path transform="matrix(1.9352179,0,0,1.9352179,761.19668,836.1479)" d="M 0 0 L 165 0 L 165 32 L 0 32 L 0 0 Z " fill="#2c2c2c"/>
<text fill="#ffffff" xml:space="preserve" transform="matrix(1.4216176 0 0 1.4216176 -139.90024 -41.59185)" font-size="17.696625" font-family="Helvetica" font-weight="bold"><tspan y="645.3975" x="651.5498 657.4428 667.2821 678.0947">tags</tspan></text>
<path transform="matrix(1.9352179,0,0,1.9352179,761.19668,898.0748)" d="M 0 0 L 165 0 L 165 29 L 0 29 L 0 0 Z " fill="#4a4d54"/>
<text fill="#d7d7d9" xml:space="preserve" transform="matrix(1.4216176 0 0 1.4216176 -139.90024 -41.59185)" font-size="16.335347" font-family="Helvetica"><tspan y="686.44009" x="651.5498 660.63229 669.7147 683.3221">name</tspan></text>
<text fill="#a9a9a9" xml:space="preserve" transform="matrix(1.4216176 0 0 1.4216176 -139.90024 -41.59185)" font-size="16.335347" font-family="Helvetica"><tspan y="686.44009" x="796.752 804.9197 809.4609 814.9006 818.52706 827.6095">string</tspan></text>
<path transform="matrix(1.9352179,0,0,1.9352179,87.740848,565.21737)" d="M 0 0 L 165 0 L 165 32 L 0 32 L 0 0 Z " fill="#2c2c2c"/>
<text fill="#ffffff" xml:space="preserve" transform="matrix(1.4216176 0 0 1.4216176 -139.90024 -41.59185)" font-size="17.696625" font-family="Helvetica" font-weight="bold"><tspan y="454.81849" x="177.82483 183.7178 193.55713 204.36977 217.14673 226.98606 231.90572 241.74504 247.63802 252.55768 263.3703 274.18293">tagRelations</tspan></text>
<path transform="matrix(1.9352179,0,0,1.9352179,87.740848,627.14437)" d="M 0 0 L 165 0 L 165 29 L 0 29 L 0 0 Z " fill="#4a4d54"/>
<text fill="#d7d7d9" xml:space="preserve" transform="matrix(1.4216176 0 0 1.4216176 -139.90024 -41.59185)" font-size="16.335347" font-family="Helvetica"><tspan y="495.86103" x="177.82483 183.2645 192.34696 200.51464 204.14109 213.22354 225.01766 229.55889">reviewId</tspan></text>
<text fill="#a9a9a9" xml:space="preserve" transform="matrix(1.4216176 0 0 1.4216176 -139.90024 -41.59185)" font-size="16.335347" font-family="Helvetica"><tspan y="495.86103" x="348.4473 352.07374 361.1562">int</tspan></text>
<path transform="matrix(1.9352179,0,0,1.9352179,87.740848,683.2657)" d="M 0 0 L 165 0 L 165 29 L 0 29 L 0 0 Z " fill="#4a4d54"/>
<text fill="#d7d7d9" xml:space="preserve" transform="matrix(1.4216176 0 0 1.4216176 -139.90024 -41.59185)" font-size="16.335347" font-family="Helvetica"><tspan y="535.33816" x="177.82483 182.36606 191.44852">tag</tspan></text>
<text fill="#a9a9a9" xml:space="preserve" transform="matrix(1.4216176 0 0 1.4216176 -139.90024 -41.59185)" font-size="16.335347" font-family="Helvetica"><tspan y="535.33816" x="323.027 331.19468 335.7359 341.17558 344.802 353.88447">string</tspan></text>
<path transform="matrix(1.9352179,0,0,1.9352179,79.99997,286.546)" d="M 0 0 L 170.21875 0 L 170.21875 32 L 0 32 L 0 0 Z " fill="#2c2c2c"/>
<text fill="#ffffff" xml:space="preserve" transform="matrix(1.4216176 0 0 1.4216176 -139.90024 -41.59185)" font-size="17.696625" font-family="Helvetica" font-weight="bold"><tspan y="258.79435" x="172.37972 177.29938 193.03168 202.871 213.68364 223.52297">images</tspan></text>
<path transform="matrix(1.9352179,0,0,1.9352179,79.99997,348.473)" d="M 0 0 L 170.21875 0 L 170.21875 29 L 0 29 L 0 0 Z " fill="#4a4d54"/>
<text fill="#d7d7d9" xml:space="preserve" transform="matrix(1.4216176 0 0 1.4216176 -139.90024 -41.59185)" font-size="16.335347" font-family="Helvetica"><tspan y="299.83689" x="172.37972 177.81938 186.90184 195.06952 198.69597 207.77843 219.57254 224.11377">reviewId</tspan></text>
<text fill="#a9a9a9" xml:space="preserve" transform="matrix(1.4216176 0 0 1.4216176 -139.90024 -41.59185)" font-size="16.335347" font-family="Helvetica"><tspan y="299.83689" x="350.10636 353.7328 362.81526">int</tspan></text>
<path transform="matrix(1.9352179,0,0,1.9352179,79.99997,404.5943)" d="M 0 0 L 170.21875 0 L 170.21875 29 L 0 29 L 0 0 Z " fill="#383840"/>
<text fill="#d7d7d9" xml:space="preserve" transform="matrix(1.4216176 0 0 1.4216176 -139.90024 -41.59185)" font-size="16.335347" font-family="Helvetica"><tspan y="339.31398" x="172.37972 181.46218 186.90184">url</tspan></text>
<text fill="#a9a9a9" xml:space="preserve" transform="matrix(1.4216176 0 0 1.4216176 -139.90024 -41.59185)" font-size="16.335347" font-family="Helvetica"><tspan y="339.31398" x="277.45875 285.6264 294.70887 300.14854 308.3162 317.39866 326.4811 331.92079 337.36045 346.4429 355.52537 364.60783">varchar(512)</tspan></text>
<path transform="matrix(1.9352179,0,0,1.9352179,79.99997,460.7156)" d="M 0 0 L 170.21875 0 L 170.21875 29 L 0 29 L 0 0 Z " fill="#383840"/>
<text fill="#d7d7d9" xml:space="preserve" transform="matrix(1.4216176 0 0 1.4216176 -139.90024 -41.59185)" font-size="16.335347" font-family="Helvetica"><tspan y="378.79106" x="172.37972 181.46218 186.90184 195.9843 205.06676">order</tspan></text>
<text fill="#a9a9a9" xml:space="preserve" transform="matrix(1.4216176 0 0 1.4216176 -139.90024 -41.59185)" font-size="16.335347" font-family="Helvetica"><tspan y="378.79106" x="350.10636 353.7328 362.81526">int</tspan></text>
<path transform="matrix(1.9352179,0,0,1.9352179,745.71487,123.98771)" d="M 0 0 L 177.35416 0 L 177.35416 32 L 0 32 L 0 0 Z " fill="#2c2c2c"/>
<text fill="#ffffff" xml:space="preserve" transform="matrix(1.4216176 0 0 1.4216176 -139.90024 -41.59185)" font-size="17.696625" font-family="Helvetica" font-weight="bold"><tspan y="144.44692" x="640.6596 647.5436 657.3829 663.2759 668.19558 679.0082 689.8208">ratings</tspan></text>
<path transform="matrix(1.9352179,0,0,1.9352179,745.71487,185.91468)" d="M 0 0 L 177.35416 0 L 177.35416 29 L 0 29 L 0 0 Z " fill="#4a4d54"/>
<text fill="#d7d7d9" xml:space="preserve" transform="matrix(1.4216176 0 0 1.4216176 -139.90024 -41.59185)" font-size="16.335347" font-family="Helvetica"><tspan y="185.48947" x="640.6596 649.74209 657.9097 666.9922 672.4319 684.226 696.02017 700.56137">userUUID</tspan></text>
<text fill="#a9a9a9" xml:space="preserve" transform="matrix(1.4216176 0 0 1.4216176 -139.90024 -41.59185)" font-size="16.335347" font-family="Helvetica"><tspan y="185.48947" x="802.67929 810.8469 815.3881 820.8278 824.4543 833.53677">string</tspan></text>
<path transform="matrix(1.9352179,0,0,1.9352179,745.71487,242.03601)" d="M 0 0 L 177.35416 0 L 177.35416 29 L 0 29 L 0 0 Z " fill="#4a4d54"/>
<text fill="#d7d7d9" xml:space="preserve" transform="matrix(1.4216176 0 0 1.4216176 -139.90024 -41.59185)" font-size="16.335347" font-family="Helvetica"><tspan y="224.96656" x="640.6596 646.0993 655.18179 663.3494 666.9759 676.05838 687.8525 692.3937">reviewId</tspan></text>
<text fill="#a9a9a9" xml:space="preserve" transform="matrix(1.4216176 0 0 1.4216176 -139.90024 -41.59185)" font-size="16.335347" font-family="Helvetica"><tspan y="224.96656" x="828.09957 831.726 840.8085">int</tspan></text>
<path transform="matrix(1.9352179,0,0,1.9352179,745.71487,298.15733)" d="M 0 0 L 177.35416 0 L 177.35416 29 L 0 29 L 0 0 Z " fill="#383840"/>
<text fill="#d7d7d9" xml:space="preserve" transform="matrix(1.4216176 0 0 1.4216176 -139.90024 -41.59185)" font-size="16.335347" font-family="Helvetica"><tspan y="264.44364" x="640.6596 646.0993 655.18179 659.72299 663.3494 672.4319">rating</tspan></text>
<text fill="#a9a9a9" xml:space="preserve" transform="matrix(1.4216176 0 0 1.4216176 -139.90024 -41.59185)" font-size="16.335347" font-family="Helvetica"><tspan y="264.44364" x="830.80349 834.42996 843.5124">int</tspan></text>
</g>
</svg>
