<?xml version="1.0" encoding="UTF-8" standalone="no"?>
<!DOCTYPE svg PUBLIC "-//W3C//DTD SVG 1.1//EN" "http://www.w3.org/Graphics/SVG/1.1/DTD/svg11.dtd">
<svg xmlns="http://www.w3.org/2000/svg" xmlns:xlink="http://www.w3.org/1999/xlink" version="1.1" width="1920pt" height="1080pt" viewBox="0 0 1920 1080">
<g enable-background="new">
<path transform="matrix(.2,0,0,.2,1656,960)" d="M 211.9 68.8 L 159.7 68.8 L 159.7 147.6 L 242.4 147.6 L 242.4 99.3 C 242.4 82.5 228.8 68.8 211.9 68.8 Z " fill="#428cff"/>
<path transform="matrix(.2,0,0,.2,1656,960)" d="M 242.4 147.6 L 159.7 147.6 L 159.7 228.8 L 211.9 228.8 C 228.7 228.8 242.4 215.1 242.4 198.3 L 242.4 147.6 Z " fill="#2670de"/>
<path transform="matrix(.2,0,0,.2,1656,960)" d="M 159.7 68.8 L 113.1 68.8 C 96.3 68.8 82.6 82.5 82.6 99.3 L 82.6 198.3 C 82.6 215.1 96.3 228.8 113.1 228.8 L 159.7 228.8 L 159.7 68.8 Z " fill="#2161cf"/>
<path transform="matrix(.2,0,0,.2,1656,960)" d="M 135.9 165.1 L 113.9 165.1 C 110.5 165.1 107.8 162.4 107.8 159 L 107.8 137 C 107.8 133.6 110.5 130.9 113.9 130.9 L 135.9 130.9 C 139.3 130.9 142 133.6 142 137 L 142 159 C 142 162.4 139.2 165.1 135.9 165.1 Z M 185 92.8 L 207 92.8 C 210.4 92.8 213.1 95.5 213.1 98.9 L 213.1 120.9 C 213.1 124.299999 210.4 127 207 127 L 185 127 C 181.6 127 178.9 124.299999 178.9 120.9 L 178.9 98.9 C 178.9 95.5 181.7 92.8 185 92.8 Z M 185 171 L 207 171 C 210.4 171 213.1 173.7 213.1 177.1 L 213.1 199.1 C 213.1 202.5 210.4 205.2 207 205.2 L 185 205.2 C 181.6 205.2 178.9 202.5 178.9 199.1 L 178.9 177.1 C 178.9 173.7 181.7 171 185 171 Z " fill="#ffffff"/>
<path transform="matrix(.2,0,0,.2,1656,960)" d="M 126.076 151.65 L 192.116 103.89 L 196.862 110.454 L 130.823 158.214 Z " fill="#ffffff"/>
<path transform="matrix(.2,0,0,.2,1656,960)" d="M 125.826999 143.874 L 130.8 137.48 L 194.819 187.268 L 189.846 193.662 Z " fill="#ffffff"/>
<path transform="matrix(.2,0,0,.2,1656,960)" d="M 344.9 182.1 L 335.9 182.1 L 335.9 175.3 L 335.7 175.3 C 334 177.8 331.6 179.8 328.6 181.2 C 325.6 182.6 322.5 183.3 319.3 183.3 C 315.6 183.3 312.3 182.7 309.4 181.4 C 306.4 180.1 303.9 178.4 301.8 176.1 C 299.7 173.8 298.1 171.2 297 168.2 C 295.9 165.2 295.3 161.9 295.3 158.4 C 295.3 154.9 295.9 151.6 297 148.6 C 298.1 145.6 299.7 142.9 301.8 140.7 C 303.9 138.5 306.4 136.7 309.4 135.5 C 312.4 134.2 315.7 133.6 319.3 133.6 C 322.7 133.6 325.9 134.3 328.9 135.7 C 331.9 137.1 334.2 139.1 335.8 141.5 L 336 141.5 L 336 106.6 L 345 106.6 L 345 182.1 L 344.9 182.1 Z M 320.3 174.9 C 322.7 174.9 324.9 174.5 326.8 173.7 C 328.7 172.9 330.4 171.7 331.7 170.3 C 333 168.9 334.1 167.1 334.8 165.1 C 335.5 163.1 335.9 160.9 335.9 158.5 C 335.9 156.1 335.5 153.9 334.8 151.9 C 334.1 149.9 333 148.1 331.7 146.7 C 330.4 145.3 328.7 144.1 326.8 143.3 C 324.9 142.5 322.7 142.1 320.3 142.1 C 317.9 142.1 315.7 142.5 313.8 143.3 C 311.9 144.1 310.2 145.3 308.9 146.7 C 307.6 148.1 306.5 149.9 305.8 151.9 C 305.1 153.9 304.7 156.1 304.7 158.5 C 304.7 160.9 305.1 163.1 305.8 165.1 C 306.5 167.1 307.6 168.9 308.9 170.3 C 310.2 171.7 311.9 172.9 313.8 173.7 C 315.8 174.5 317.9 174.9 320.3 174.9 Z M 358.4 106.6 L 367.4 106.6 L 367.4 141.5 L 367.6 141.5 C 369.2 139 371.5 137.1 374.5 135.7 C 377.5 134.3 380.7 133.6 384.1 133.6 C 387.8 133.6 391.1 134.2 394 135.5 C 397 136.8 399.5 138.5 401.6 140.7 C 403.7 142.9 405.3 145.6 406.4 148.6 C 407.5 151.6 408.1 154.9 408.1 158.4 C 408.1 161.9 407.5 165.2 406.4 168.2 C 405.3 171.2 403.7 173.8 401.6 176.1 C 399.5 178.4 397 180.1 394 181.4 C 391 182.7 387.7 183.3 384.1 183.3 C 380.9 183.3 377.8 182.6 374.8 181.2 C 371.8 179.8 369.4 177.8 367.7 175.3 L 367.5 175.3 L 367.5 182.1 L 358.5 182.1 L 358.5 106.6 L 358.4 106.6 Z M 383 174.9 C 385.4 174.9 387.6 174.5 389.5 173.7 C 391.4 172.9 393.1 171.7 394.4 170.3 C 395.7 168.9 396.8 167.1 397.5 165.1 C 398.2 163.1 398.6 160.9 398.6 158.5 C 398.6 156.1 398.2 153.9 397.5 151.9 C 396.8 149.9 395.7 148.1 394.4 146.7 C 393.1 145.3 391.4 144.1 389.5 143.3 C 387.6 142.5 385.4 142.1 383 142.1 C 380.6 142.1 378.4 142.5 376.5 143.3 C 374.6 144.1 372.9 145.3 371.6 146.7 C 370.3 148.1 369.2 149.9 368.5 151.9 C 367.8 153.9 367.4 156.1 367.4 158.5 C 367.4 160.9 367.8 163.1 368.5 165.1 C 369.2 167.1 370.3 168.9 371.6 170.3 C 372.9 171.7 374.6 172.9 376.5 173.7 C 378.4 174.5 380.6 174.9 383 174.9 Z M 466.9 182.1 L 457.9 182.1 L 457.9 175.3 L 457.7 175.3 C 456 177.8 453.6 179.8 450.6 181.2 C 447.6 182.6 444.5 183.3 441.3 183.3 C 437.6 183.3 434.3 182.7 431.4 181.4 C 428.4 180.1 425.9 178.4 423.8 176.1 C 421.7 173.8 420.1 171.2 419 168.2 C 417.9 165.2 417.3 161.9 417.3 158.4 C 417.3 154.9 417.9 151.6 419 148.6 C 420.1 145.6 421.7 142.9 423.8 140.7 C 425.9 138.5 428.4 136.7 431.4 135.5 C 434.4 134.2 437.7 133.6 441.3 133.6 C 444.7 133.6 447.9 134.3 450.9 135.7 C 453.9 137.1 456.2 139.1 457.8 141.5 L 458 141.5 L 458 106.6 L 467 106.6 L 467 182.1 L 466.9 182.1 Z M 442.3 174.9 C 444.7 174.9 446.9 174.5 448.8 173.7 C 450.7 172.9 452.4 171.7 453.7 170.3 C 455 168.9 456.1 167.1 456.8 165.1 C 457.5 163.1 457.9 160.9 457.9 158.5 C 457.9 156.1 457.5 153.9 456.8 151.9 C 456.1 149.9 455 148.1 453.7 146.7 C 452.4 145.3 450.7 144.1 448.8 143.3 C 446.9 142.5 444.7 142.1 442.3 142.1 C 439.9 142.1 437.7 142.5 435.8 143.3 C 433.9 144.1 432.2 145.3 430.9 146.7 C 429.6 148.1 428.5 149.9 427.8 151.9 C 427.1 153.9 426.7 156.1 426.7 158.5 C 426.7 160.9 427.1 163.1 427.8 165.1 C 428.5 167.1 429.6 168.9 430.9 170.3 C 432.2 171.7 433.9 172.9 435.8 173.7 C 437.7 174.5 439.9 174.9 442.3 174.9 Z M 479 117.8 C 479 116 479.6 114.5 480.9 113.2 C 482.2 111.9 483.7 111.3 485.5 111.3 C 487.3 111.3 488.8 111.9 490.1 113.2 C 491.4 114.5 492 116 492 117.8 C 492 119.6 491.4 121.1 490.1 122.4 C 488.8 123.7 487.3 124.3 485.5 124.3 C 483.7 124.3 482.2 123.7 480.9 122.4 C 479.7 121.1 479 119.6 479 117.8 Z M 481.1 134.8 L 490.1 134.8 L 490.1 182.1 L 481.1 182.1 L 481.1 134.8 Z M 504.6 140.5 C 507.1 138.2 510.1 136.4 513.4 135.3 C 516.7 134.1 520.1 133.6 523.4 133.6 C 526.9 133.6 529.8 134 532.3 134.9 C 534.8 135.8 536.8 136.9 538.4 138.4 C 540 139.9 541.2 141.5 541.9 143.4 C 542.7 145.3 543 147.3 543 149.3 L 543 173.5 C 543 175.2 543 176.7 543.1 178.1 C 543.2 179.5 543.3 180.8 543.4 182.1 L 535.4 182.1 C 535.2 179.7 535.1 177.3 535.1 174.9 L 535 174.9 C 533 178 530.6 180.1 527.9 181.4 C 525.2 182.7 522 183.3 518.4 183.3 C 516.2 183.3 514.1 183 512.1 182.4 C 510.1 181.8 508.4 180.9 506.9 179.7 C 505.4 178.5 504.2 177 503.4 175.3 C 502.5 173.5 502.1 171.5 502.1 169.2 C 502.1 166.1 502.8 163.6 504.1 161.5 C 505.5 159.4 507.3 157.8 509.7 156.5 C 512.1 155.2 514.8 154.3 518 153.7 C 521.2 153.1 524.5 152.9 528.1 152.9 L 534.7 152.9 L 534.7 150.9 C 534.7 149.7 534.5 148.5 534 147.3 C 533.5 146.1 532.8 145 531.9 144.1 C 531 143.1 529.8 142.4 528.4 141.8 C 527 141.2 525.3 141 523.4 141 C 521.7 141 520.2 141.2 518.9 141.5 C 517.6 141.8 516.4 142.2 515.4 142.7 C 514.3 143.2 513.4 143.8 512.5 144.4 C 511.6 145.1 510.8 145.7 510 146.3 L 504.6 140.5 Z M 529.9 159.3 C 527.8 159.3 525.6 159.4 523.4 159.6 C 521.2 159.8 519.1 160.3 517.3 160.9 C 515.5 161.6 514 162.5 512.8 163.7 C 511.6 164.9 511.1 166.4 511.1 168.3 C 511.1 171 512 173 513.8 174.2 C 515.6 175.4 518.1 176 521.2 176 C 523.7 176 525.8 175.6 527.5 174.8 C 529.2 174 530.6 172.9 531.7 171.6 C 532.8 170.3 533.5 168.8 534 167.2 C 534.5 165.6 534.7 164 534.7 162.4 L 534.7 159.4 L 529.9 159.4 L 529.9 159.3 Z M 603.6 181.7 C 603.6 185.3 603 188.6 601.8 191.5 C 600.6 194.5 598.8 197 596.6 199.2 C 594.3 201.4 591.6 203 588.4 204.2 C 585.2 205.4 581.7 206 577.8 206 C 573.3 206 569.1 205.4 565.4 204.1 C 561.6 202.8 558.1 200.6 554.7 197.5 L 560.8 189.9 C 563.1 192.4 565.7 194.3 568.4 195.6 C 571.1 196.9 574.2 197.5 577.7 197.5 C 581 197.5 583.8 197 586 196.1 C 588.2 195.1 589.9 193.9 591.2 192.4 C 592.5 190.9 593.4 189.1 593.9 187.2 C 594.4 185.2 594.7 183.3 594.7 181.3 L 594.7 174.3 L 594.4 174.3 C 592.7 177.2 590.3 179.3 587.4 180.6 C 584.4 182 581.3 182.6 578.1 182.6 C 574.6 182.6 571.4 182 568.5 180.8 C 565.5 179.6 563 177.9 560.9 175.7 C 558.8 173.5 557.1 171 555.9 168 C 554.7 165 554.1 161.8 554.1 158.4 C 554.1 154.9 554.7 151.7 555.8 148.7 C 556.9 145.7 558.5 143 560.6 140.8 C 562.7 138.5 565.2 136.8 568.2 135.5 C 571.2 134.2 574.5 133.6 578.1 133.6 C 581.3 133.6 584.4 134.3 587.4 135.7 C 590.4 137.1 592.8 139.1 594.5 141.6 L 594.7 141.6 L 594.7 134.8 L 603.7 134.8 L 603.6 181.7 Z M 579.1 141.9 C 576.7 141.9 574.5 142.3 572.6 143.1 C 570.7 143.9 569 145.1 567.7 146.5 C 566.4 147.9 565.3 149.7 564.6 151.7 C 563.9 153.7 563.5 155.9 563.5 158.3 C 563.5 163.1 564.9 166.9 567.7 169.8 C 570.5 172.7 574.3 174.1 579.1 174.1 C 583.9 174.1 587.7 172.7 590.5 169.8 C 593.3 166.9 594.7 163.1 594.7 158.3 C 594.7 155.9 594.3 153.7 593.6 151.7 C 592.9 149.7 591.8 147.9 590.5 146.5 C 589.2 145.1 587.5 143.9 585.6 143.1 C 583.6 142.4 581.5 141.9 579.1 141.9 Z M 617.2 134.8 L 626.2 134.8 L 626.2 142.1 L 626.4 142.1 C 627 140.8 627.8 139.7 628.8 138.7 C 629.8 137.7 630.9 136.8 632.1 136.1 C 633.3 135.4 634.7 134.8 636.1 134.4 C 637.6 134 639 133.8 640.5 133.8 C 642 133.8 643.3 134 644.5 134.4 L 644.1 144.1 C 643.4 143.9 642.6 143.7 641.9 143.6 C 641.2 143.5 640.4 143.4 639.7 143.4 C 635.3 143.4 631.9 144.6 629.6 147.1 C 627.3 149.6 626.1 153.4 626.1 158.6 L 626.1 182.4 L 617.1 182.4 L 617.2 134.8 Z M 654.3 140.5 C 656.8 138.2 659.8 136.4 663.1 135.3 C 666.4 134.1 669.8 133.6 673.1 133.6 C 676.6 133.6 679.5 134 682 134.9 C 684.5 135.8 686.5 136.9 688.1 138.4 C 689.7 139.9 690.9 141.5 691.6 143.4 C 692.4 145.3 692.7 147.3 692.7 149.3 L 692.7 173.5 C 692.7 175.2 692.7 176.7 692.8 178.1 C 692.9 179.5 693 180.8 693.1 182.1 L 685.1 182.1 C 684.9 179.7 684.8 177.3 684.8 174.9 L 684.6 174.9 C 682.6 178 680.2 180.1 677.5 181.4 C 674.8 182.7 671.6 183.3 668 183.3 C 665.8 183.3 663.7 183 661.7 182.4 C 659.7 181.8 658 180.9 656.5 179.7 C 655 178.5 653.8 177 653 175.3 C 652.1 173.5 651.7 171.5 651.7 169.2 C 651.7 166.1 652.4 163.6 653.7 161.5 C 655.1 159.4 656.9 157.8 659.3 156.5 C 661.7 155.2 664.4 154.3 667.6 153.7 C 670.8 153.1 674.1 152.9 677.7 152.9 L 684.3 152.9 L 684.3 150.9 C 684.3 149.7 684.1 148.5 683.6 147.3 C 683.1 146.1 682.4 145 681.5 144.1 C 680.6 143.1 679.4 142.4 678 141.8 C 676.6 141.2 674.9 141 673 141 C 671.3 141 669.8 141.2 668.5 141.5 C 667.2 141.8 666 142.2 665 142.7 C 663.9 143.2 663 143.8 662.1 144.4 C 661.2 145.1 660.4 145.7 659.6 146.3 L 654.3 140.5 Z M 679.7 159.3 C 677.6 159.3 675.4 159.4 673.2 159.6 C 671 159.8 668.9 160.3 667.1 160.9 C 665.3 161.6 663.8 162.5 662.6 163.7 C 661.4 164.9 660.9 166.4 660.9 168.3 C 660.9 171 661.8 173 663.6 174.2 C 665.4 175.4 667.9 176 671 176 C 673.5 176 675.6 175.6 677.3 174.8 C 679 174 680.4 172.9 681.5 171.6 C 682.6 170.3 683.3 168.8 683.8 167.2 C 684.3 165.6 684.5 164 684.5 162.4 L 684.5 159.4 L 679.7 159.4 L 679.7 159.3 Z M 705.9 134.8 L 714.3 134.8 L 714.3 142.2 L 714.5 142.2 C 714.7 141.5 715.2 140.7 716 139.7 C 716.8 138.7 717.9 137.8 719.2 136.9 C 720.5 136 722 135.2 723.8 134.6 C 725.6 134 727.5 133.7 729.6 133.7 C 733.1 133.7 736.1 134.4 738.5 135.9 C 740.9 137.4 742.9 139.6 744.4 142.5 C 745.9 139.6 748.1 137.4 750.9 135.9 C 753.7 134.4 756.5 133.7 759.4 133.7 C 763.1 133.7 766.1 134.3 768.4 135.5 C 770.7 136.7 772.6 138.3 773.9 140.2 C 775.2 142.2 776.1 144.4 776.6 146.9 C 777.1 149.4 777.3 152 777.3 154.6 L 777.3 182.2 L 768.3 182.2 L 768.3 155.8 C 768.3 154 768.2 152.3 768 150.6 C 767.8 148.9 767.3 147.5 766.6 146.2 C 765.9 144.9 764.8 143.9 763.5 143.2 C 762.2 142.4 760.4 142.1 758.2 142.1 C 753.9 142.1 750.8 143.4 748.9 146.1 C 747 148.8 746.1 152.2 746.1 156.4 L 746.1 182.3 L 737.1 182.3 L 737.1 157.5 C 737.1 155.2 737 153.2 736.8 151.3 C 736.6 149.4 736.1 147.8 735.4 146.5 C 734.7 145.1 733.7 144.1 732.4 143.3 C 731.1 142.5 729.4 142.2 727.2 142.2 C 725.6 142.2 724.1 142.5 722.6 143.1 C 721.1 143.7 719.8 144.7 718.7 145.9 C 717.6 147.2 716.7 148.8 716 150.7 C 715.3 152.7 715 155 715 157.6 L 715 182.2 L 706 182.2 L 706 134.8 L 705.9 134.8 Z " fill="#2161cf"/>
<path transform="matrix(.2,0,0,.2,1656,960)" d="M 798.1 182.7 C 796.3 182.7 794.8 182.1 793.5 180.8 C 792.2 179.5 791.6 178 791.6 176.2 C 791.6 174.4 792.2 172.9 793.5 171.6 C 794.8 170.3 796.3 169.7 798.1 169.7 C 799.9 169.7 801.4 170.3 802.7 171.6 C 804 172.9 804.6 174.4 804.6 176.2 C 804.6 178 804 179.5 802.7 180.8 C 801.4 182 799.9 182.7 798.1 182.7 Z M 817.3 117.799999 C 817.3 116 817.9 114.5 819.2 113.2 C 820.5 111.9 822 111.299999 823.8 111.299999 C 825.6 111.299999 827.1 111.9 828.4 113.2 C 829.7 114.5 830.3 116 830.3 117.799999 C 830.3 119.6 829.7 121.1 828.4 122.4 C 827.1 123.7 825.6 124.299999 823.8 124.299999 C 822 124.299999 820.5 123.7 819.2 122.4 C 818 121.1 817.3 119.6 817.3 117.799999 Z M 819.4 134.8 L 828.4 134.8 L 828.4 182.1 L 819.4 182.1 L 819.4 134.8 Z M 840.4 158.4 C 840.4 154.9 841 151.7 842.3 148.7 C 843.6 145.7 845.4 143.1 847.6 140.8 C 849.9 138.5 852.5 136.8 855.6 135.5 C 858.7 134.2 862 133.6 865.5 133.6 C 869 133.6 872.3 134.2 875.4 135.5 C 878.5 136.8 881.1 138.6 883.4 140.8 C 885.7 143.1 887.4 145.7 888.7 148.7 C 890 151.7 890.6 154.9 890.6 158.4 C 890.6 161.9 890 165.1 888.7 168.1 C 887.4 171.1 885.6 173.8 883.4 176 C 881.1 178.2 878.5 180 875.4 181.3 C 872.3 182.6 869 183.2 865.5 183.2 C 862 183.2 858.7 182.6 855.6 181.3 C 852.5 180 849.9 178.2 847.6 176 C 845.3 173.8 843.6 171.1 842.3 168.1 C 841.1 165.1 840.4 161.9 840.4 158.4 Z M 850 158.4 C 850 160.8 850.4 163 851.1 165 C 851.8 167 852.9 168.8 854.2 170.2 C 855.5 171.6 857.2 172.8 859.1 173.6 C 861 174.4 863.2 174.8 865.6 174.8 C 868 174.8 870.2 174.4 872.1 173.6 C 874 172.8 875.7 171.6 877 170.2 C 878.3 168.8 879.4 167 880.1 165 C 880.8 163 881.2 160.8 881.2 158.4 C 881.2 156 880.8 153.8 880.1 151.8 C 879.4 149.8 878.3 148 877 146.6 C 875.7 145.2 874 144 872.1 143.2 C 870.2 142.4 868 142 865.6 142 C 863.2 142 861 142.4 859.1 143.2 C 857.2 144 855.5 145.2 854.2 146.6 C 852.9 148 851.8 149.8 851.1 151.8 C 850.4 153.8 850 156 850 158.4 Z " fill="#428cff"/>
<path transform="matrix(2.0091325,0,0,2.0091325,200.54792,-220.45665)" stroke-width="3" stroke-linecap="butt" stroke-miterlimit="4" stroke-linejoin="miter" fill="none" stroke="#3da8de" d="M 485.643 351.5 L 524 351.5 C 528.4183 351.5 532 355.08174 532 359.5 L 532 398.5 C 532 402.91828 535.5817 406.5 540 406.5 L 584 406.5 "/>
<symbol id="font_0_12">
<path d="M .157 .51500007 L .157 0 L .245 0 L .245 .72300007 L .187 .72300007 C .15600002 .61200007 .136 .597 0 .57900008 L 0 .51500007 L .157 .51500007 Z "/>
</symbol>
<use xlink:href="#font_0_12" transform="matrix(20.091326,0,0,-20.091326,1352.2615,621.3698)" fill="#d7d7d9"/>
<symbol id="font_0_b">
<path d="M .120000008 .28800003 L .125 .17600003 L .019000002 .21400002 L 0 .155 L .107999999 .12500003 L .039 .036000015 L .089 0 L .152 .093000028 L .214 0 L .26500003 .036000015 L .19500001 .12500003 L .30300004 .155 L .284 .21400002 L .178 .17600003 L .183 .28800003 L .120000008 .28800003 Z "/>
</symbol>
<use xlink:href="#font_0_b" transform="matrix(20.091326,0,0,-20.091326,1191.2456,465.8429)" fill="#d7d7d9"/>
<path transform="matrix(2.0091325,0,0,2.0091325,200.54792,-220.45665)" stroke-width="3" stroke-linecap="butt" stroke-miterlimit="4" stroke-linejoin="miter" fill="none" stroke="#3da8de" d="M 127.14031 526.5 L 180 526.5 C 184.41828 526.5 188 522.9183 188 518.5 L 188 388.5 C 188 384.08174 191.58173 380.5 196 380.5 L 256 380.5 "/>
<use xlink:href="#font_0_12" transform="matrix(20.091326,0,0,-20.091326,470.5342,862.4658)" fill="#d7d7d9"/>
<use xlink:href="#font_0_b" transform="matrix(20.091326,0,0,-20.091326,693.69796,524.1077)" fill="#d7d7d9"/>
<path transform="matrix(2.0091325,0,0,2.0091325,200.54792,-220.45665)" stroke-width="3" stroke-linecap="butt" stroke-miterlimit="4" stroke-linejoin="miter" fill="none" stroke="#3da8de" d="M 129 322.5 L 192 322.5 L 256 322.5 "/>
<use xlink:href="#font_0_12" transform="matrix(20.091326,0,0,-20.091326,693.266,452.60273)" fill="#d7d7d9"/>
<use xlink:href="#font_0_b" transform="matrix(20.091326,0,0,-20.091326,474.70249,407.578)" fill="#d7d7d9"/>
<path transform="matrix(2.0091325,0,0,2.0091325,200.54792,-220.45665)" stroke-width="3" stroke-linecap="butt" stroke-miterlimit="4" stroke-linejoin="miter" fill="none" stroke="#3da8de" d="M 129 438.5 L 140 438.5 C 144.41828 438.5 148 434.91828 148 430.5 L 148 359.5 C 148 355.08174 144.41828 351.5 140 351.5 L 129 351.5 "/>
<use xlink:href="#font_0_12" transform="matrix(20.091326,0,0,-20.091326,474.2706,685.6621)" fill="#d7d7d9"/>
<use xlink:href="#font_0_b" transform="matrix(20.091326,0,0,-20.091326,474.70249,465.8429)" fill="#d7d7d9"/>
<path transform="matrix(2.0091325,0,0,2.0091325,200.54792,-220.45665)" stroke-width="3" stroke-linecap="butt" stroke-miterlimit="4" stroke-linejoin="miter" fill="none" stroke="#3da8de" d="M 797.4401 406.5 L 808 406.5 C 812.4183 406.5 816 402.91828 816 398.5 L 816 270.5 C 816 266.08174 812.4183 262.5 808 262.5 L 793.3421 262.5 "/>
<use xlink:href="#font_0_12" transform="matrix(20.091326,0,0,-20.091326,1817.2551,621.3698)" fill="#d7d7d9"/>
<use xlink:href="#font_0_b" transform="matrix(20.091326,0,0,-20.091326,1809.4539,287.03016)" fill="#d7d7d9"/>
<path transform="matrix(2.0091325,0,0,2.0091325,200.54792,-220.45665)" stroke-width="3" stroke-linecap="butt" stroke-miterlimit="4" stroke-linejoin="miter" fill="none" stroke="#3da8de" d="M 485.643 322.5 L 540 322.5 C 544.4183 322.5 548 318.91828 548 314.5 L 548 299.5 C 548 295.08174 551.5817 291.5 556 291.5 L 616 291.5 "/>
<use xlink:href="#font_0_12" transform="matrix(20.091326,0,0,-20.091326,1190.8136,452.60273)" fill="#d7d7d9"/>
<use xlink:href="#font_0_b" transform="matrix(20.091326,0,0,-20.091326,1416.9856,345.29493)" fill="#d7d7d9"/>
<path transform="matrix(2.0091325,0,0,2.0091325,128.21915,334.0639)" d="M 0 0 L 165 0 L 165 32 L 0 32 L 0 0 Z " fill="#2c2c2c"/>
<symbol id="font_1_55">
<path d="M .28700004 .55200007 L .209 .55200007 L .209 .697 L .069000009 .697 L .069000009 .55200007 L 0 .55200007 L 0 .45900003 L .069000009 .45900003 L .069000009 .127 C .069000009 .042000005 .11400001 0 .20600002 0 C .238 0 .261 .0030000006 .28700004 .011000002 L .28700004 .109000008 C .273 .10700001 .266 .106000009 .25500003 .106000009 C .21800001 .106000009 .209 .117000009 .209 .165 L .209 .45900003 L .28700004 .45900003 L .28700004 .55200007 Z "/>
</symbol>
<symbol id="font_1_42">
<path d="M .49600006 .040000004 C .472 .06300001 .46400003 .079 .46400003 .106000009 L .46400003 .40600003 C .46400003 .51600006 .38900004 .572 .24300003 .572 C .097 .572 .021000002 .51 .012000002 .38500003 L .14700002 .38500003 C .15400002 .441 .17700002 .45900003 .24600002 .45900003 C .3 .45900003 .32700003 .441 .32700003 .40500004 C .32700003 .38700003 .31800003 .372 .30300004 .363 C .284 .35300002 .284 .35300002 .21500002 .342 L .15900001 .33200003 C .052000006 .314 0 .259 0 .16200002 C 0 .065000008 .065 0 .164 0 C .224 0 .27800004 .025000003 .328 .07700001 C .328 .049000004 .33100004 .039000006 .344 .023000002 L .49600006 .023000002 L .49600006 .040000004 M .32700003 .24000001 C .32700003 .15900001 .28700004 .113000009 .21600002 .113000009 C .16900002 .113000009 .14000002 .13800001 .14000002 .178 C .14000002 .22000002 .16200002 .24000001 .22000002 .25200004 L .268 .261 C .305 .268 .31100003 .27 .32700003 .27800004 L .32700003 .24000001 Z "/>
</symbol>
<symbol id="font_1_48">
<path d="M .359 .758 L .359 .675 C .32000003 .73800006 .277 .767 .22 .767 C .17200002 .767 .11900001 .74300006 .082 .70400008 C .028000005 .648 0 .57000008 0 .47500003 C 0 .30900003 .08800001 .19500001 .21700001 .19500001 C .275 .19500001 .31 .21400002 .359 .273 L .359 .2 C .359 .135 .313 .09 .24700001 .09 C .197 .09 .16600001 .112 .155 .153 L .011 .153 C .012000002 .111 .027000003 .082 .064 .052 C .107 .017000005 .16600001 0 .24200002 0 C .398 0 .49200005 .075 .49200005 .2 L .49200005 .758 L .359 .758 M .24599999 .65000006 C .312 .65000006 .361 .577 .361 .477 C .361 .379 .314 .312 .24400002 .312 C .183 .312 .14000002 .379 .14000002 .477 C .14000002 .57900008 .183 .65000006 .24599999 .65000006 Z "/>
</symbol>
<symbol id="font_1_33">
<path d="M .15 .289 L .322 .289 C .387 .289 .41500003 .263 .41500003 .20300001 L .41500003 .17300001 C .414 .15400002 .414 .136 .414 .125 C .414 .056 .418 .035 .43600003 0 L .59700009 0 L .59700009 .027 C .57400009 .040000004 .56500008 .055000005 .56500008 .087000008 C .56100007 .30200003 .55700007 .312 .46400003 .35200004 C .54600009 .384 .5870001 .44300003 .5870001 .532 C .5870001 .59000006 .56700006 .643 .53200009 .679 C .49900005 .71300008 .45300005 .72900006 .391 .72900006 L 0 .72900006 L 0 0 L .15 0 L .15 .289 M .15 .41400004 L .15 .60400006 L .331 .60400006 C .374 .60400006 .391 .6 .41 .58500006 C .428 .57000008 .437 .545 .437 .51100006 C .437 .476 .428 .448 .41 .43300004 C .393 .41900004 .374 .41400004 .331 .41400004 L .15 .41400004 Z "/>
</symbol>
<symbol id="font_1_46">
<path d="M .50200006 .24900002 C .503 .261 .503 .26600004 .503 .273 C .503 .32700003 .495 .377 .482 .41500003 C .446 .513 .359 .572 .25 .572 C .095000009 .572 0 .46 0 .279 C 0 .106000009 .094000007 0 .24700003 0 C .368 0 .46600003 .068 .49700005 .17500001 L .359 .17500001 C .342 .132 .303 .10700001 .252 .10700001 C .21200001 .10700001 .18 .124000009 .16000001 .15400002 C .14700002 .17400001 .142 .19800002 .14 .24900002 L .50200006 .24900002 M .142 .342 C .15100001 .425 .186 .46500004 .24800001 .46500004 C .312 .46500004 .35 .42200003 .357 .342 L .142 .342 Z "/>
</symbol>
<symbol id="font_1_4d">
<path d="M .14000002 .72900006 L 0 .72900006 L 0 0 L .14000002 0 L .14000002 .72900006 Z "/>
</symbol>
<symbol id="font_1_4a">
<path d="M .14000002 .54 L 0 .54 L 0 0 L .14000002 0 L .14000002 .54 M .14000002 .72900006 L 0 .72900006 L 0 .60400006 L .14000002 .60400006 L .14000002 .72900006 Z "/>
</symbol>
<symbol id="font_1_50">
<path d="M .26600004 .572 C .10100001 .572 0 .46300004 0 .286 C 0 .108 .10100001 0 .26700003 0 C .432 0 .534 .108 .534 .282 C .534 .46500004 .43500004 .572 .26600004 .572 M .26700003 .45900003 C .344 .45900003 .39400003 .39000003 .39400003 .284 C .39400003 .18300002 .342 .113000009 .26700003 .113000009 C .19100002 .113000009 .14000002 .18200001 .14000002 .286 C .14000002 .39000003 .19100002 .45900003 .26700003 .45900003 Z "/>
</symbol>
<symbol id="font_1_4f">
<path d="M 0 .54 L 0 0 L .14000002 0 L .14000002 .324 C .14000002 .388 .18400002 .43 .25300003 .43 C .31300003 .43 .34300003 .397 .34300003 .333 L .34300003 0 L .483 0 L .483 .36200003 C .483 .48200003 .41800005 .549 .30200003 .549 C .22900003 .549 .18 .523 .14000002 .462 L .14000002 .54 L 0 .54 Z "/>
</symbol>
<symbol id="font_1_54">
<path d="M .47599999 .38900004 C .474 .503 .386 .572 .24100001 .572 C .104 .572 .019 .503 .019 .39200003 C .019 .356 .030000003 .32500003 .049000004 .30400003 C .068 .28500004 .08500001 .27600003 .13700001 .259 L .304 .20700002 C .33900003 .19600001 .351 .185 .351 .163 C .351 .13000001 .312 .11000001 .24700003 .11000001 C .21000001 .11000001 .18200001 .116000007 .164 .12900001 C .149 .14000002 .143 .15100001 .13700001 .18 L 0 .18 C .003999999 .061000006 .091000009 0 .255 0 C .33 0 .387 .016000003 .42700003 .048 C .467 .080000009 .49100004 .13000001 .49100004 .18300002 C .49100004 .25300003 .456 .298 .38500003 .319 L .20800002 .37 C .16900002 .38200004 .15900001 .39000003 .15900001 .41200004 C .15900001 .44200004 .19100002 .462 .24000003 .462 C .307 .462 .34 .43800003 .341 .38900004 L .47599999 .38900004 Z "/>
</symbol>
<use xlink:href="#font_1_55" transform="matrix(26.118721,0,0,-26.118721,154.70352,375.9523)" fill="#ffffff"/>
<use xlink:href="#font_1_42" transform="matrix(26.118721,0,0,-26.118721,163.7667,375.9523)" fill="#ffffff"/>
<use xlink:href="#font_1_48" transform="matrix(26.118721,0,0,-26.118721,178.62827,381.04545)" fill="#ffffff"/>
<use xlink:href="#font_1_33" transform="matrix(26.118721,0,0,-26.118721,195.60543,375.35157)" fill="#ffffff"/>
<use xlink:href="#font_1_46" transform="matrix(26.118721,0,0,-26.118721,212.9483,375.9523)" fill="#ffffff"/>
<use xlink:href="#font_1_4d" transform="matrix(26.118721,0,0,-26.118721,228.64562,375.35157)" fill="#ffffff"/>
<use xlink:href="#font_1_42" transform="matrix(26.118721,0,0,-26.118721,234.88803,375.9523)" fill="#ffffff"/>
<use xlink:href="#font_1_55" transform="matrix(26.118721,0,0,-26.118721,249.04434,375.9523)" fill="#ffffff"/>
<use xlink:href="#font_1_4a" transform="matrix(26.118721,0,0,-26.118721,259.12623,375.35157)" fill="#ffffff"/>
<use xlink:href="#font_1_50" transform="matrix(26.118721,0,0,-26.118721,265.55146,375.9523)" fill="#ffffff"/>
<use xlink:href="#font_1_4f" transform="matrix(26.118721,0,0,-26.118721,282.24128,375.35157)" fill="#ffffff"/>
<use xlink:href="#font_1_54" transform="matrix(26.118721,0,0,-26.118721,297.3118,375.9523)" fill="#ffffff"/>
<path transform="matrix(2.0091325,0,0,2.0091325,128.21915,398.35615)" d="M 0 0 L 165 0 L 165 29 L 0 29 L 0 0 Z " fill="#4a4d54"/>
<symbol id="font_0_53">
<path d="M 0 .52400007 L 0 0 L .08400001 0 L .08400001 .272 C .08500001 .39800004 .13700001 .45400004 .252 .45100004 L .252 .536 C .238 .53800007 .23000002 .53900006 .22 .53900006 C .16600001 .53900006 .125 .507 .07700001 .42900003 L .07700001 .52400007 L 0 .52400007 Z "/>
</symbol>
<symbol id="font_0_46">
<path d="M .47300003 .25700004 C .47300003 .337 .46700005 .38500003 .45200003 .42400003 C .41800005 .51 .33800004 .56200006 .24 .56200006 C .094 .56200006 0 .45100004 0 .27800004 C 0 .105000007 .09 0 .23800002 0 C .35800005 0 .44100005 .068 .46200005 .18200001 L .37800003 .18200001 C .35500003 .113000009 .30800004 .07700001 .24100001 .07700001 C .18800001 .07700001 .143 .101 .114999998 .14500001 C .095 .17500001 .088 .20500002 .087 .25700004 L .47300003 .25700004 M .089 .32500003 C .096 .42200003 .155 .485 .23900001 .485 C .32400004 .485 .38300003 .41900004 .38300003 .32500003 L .089 .32500003 Z "/>
</symbol>
<symbol id="font_0_57">
<path d="M .27500005 0 L .47600005 .52400007 L .38200004 .52400007 L .23400001 .09900001 L .094000007 .52400007 L 0 .52400007 L .184 0 L .27500005 0 Z "/>
</symbol>
<symbol id="font_0_4a">
<path d="M .08400001 .52400007 L .001000002 .52400007 L .001000002 0 L .08400001 0 L .08400001 .52400007 M .08400001 .72900006 L 0 .72900006 L 0 .624 L .08400001 .624 L .08400001 .72900006 Z "/>
</symbol>
<symbol id="font_0_58">
<path d="M .54800006 0 L .702 .52400007 L .60800006 .52400007 L .50400009 .116000007 L .401 .52400007 L .299 .52400007 L .19900002 .116000007 L .09200001 .52400007 L 0 .52400007 L .15200001 0 L .246 0 L .347 .411 L .453 0 L .54800006 0 Z "/>
</symbol>
<symbol id="font_0_2a">
<path d="M .094000007 .72900006 L 0 .72900006 L 0 0 L .094000007 0 L .094000007 .72900006 Z "/>
</symbol>
<symbol id="font_0_45">
<path d="M .46900005 .75200006 L .38600005 .75200006 L .38600005 .48100005 C .351 .53400006 .29500003 .56200006 .22500003 .56200006 C .089 .56200006 0 .453 0 .286 C 0 .109000008 .086 0 .22800002 0 C .3 0 .35000003 .027000003 .39500005 .09200001 L .39500005 .023000002 L .46900005 .023000002 L .46900005 .75200006 M .23900002 .48400004 C .32900004 .48400004 .38600005 .40500004 .38600005 .279 C .38600005 .158 .328 .07800001 .24000001 .07800001 C .148 .07800001 .087000008 .15900001 .087000008 .28100003 C .087000008 .40300004 .148 .48400004 .23900002 .48400004 Z "/>
</symbol>
<use xlink:href="#font_0_53" transform="matrix(24.109589,0,0,-24.109589,156.00142,435.92695)" fill="#d7d7d9"/>
<use xlink:href="#font_0_46" transform="matrix(24.109589,0,0,-24.109589,163.33072,436.48149)" fill="#d7d7d9"/>
<use xlink:href="#font_0_57" transform="matrix(24.109589,0,0,-24.109589,176.01236,435.92695)" fill="#d7d7d9"/>
<use xlink:href="#font_0_4a" transform="matrix(24.109589,0,0,-24.109589,189.41732,435.92695)" fill="#d7d7d9"/>
<use xlink:href="#font_0_46" transform="matrix(24.109589,0,0,-24.109589,194.14282,436.48149)" fill="#d7d7d9"/>
<use xlink:href="#font_0_58" transform="matrix(24.109589,0,0,-24.109589,206.72803,435.92695)" fill="#d7d7d9"/>
<use xlink:href="#font_0_2a" transform="matrix(24.109589,0,0,-24.109589,226.40148,435.92695)" fill="#d7d7d9"/>
<use xlink:href="#font_0_45" transform="matrix(24.109589,0,0,-24.109589,231.31975,436.48149)" fill="#d7d7d9"/>
<symbol id="font_0_4f">
<path d="M 0 .52400007 L 0 0 L .084000017 0 L .084000017 .289 C .084000017 .39600004 .14000002 .46600003 .22600001 .46600003 C .29200004 .46600003 .33400003 .42600004 .33400003 .363 L .33400003 0 L .41700004 0 L .41700004 .39600004 C .41700004 .483 .35200004 .53900006 .25100003 .53900006 C .17300001 .53900006 .123 .509 .077 .43600003 L .077 .52400007 L 0 .52400007 Z "/>
</symbol>
<symbol id="font_0_55">
<path d="M .24000001 .54700008 L .15400002 .54700008 L .15400002 .69100007 L .071 .69100007 L .071 .54700008 L 0 .54700008 L 0 .47900004 L .071 .47900004 L .071 .083000008 C .071 .029000003 .10700001 0 .172 0 C .194 0 .21200001 .0020000004 .24000001 .007000001 L .24000001 .07700001 C .22800002 .074 .21700001 .073 .20000002 .073 C .164 .073 .15400002 .083000008 .15400002 .120000008 L .15400002 .47900004 L .24000001 .47900004 L .24000001 .54700008 Z "/>
</symbol>
<use xlink:href="#font_0_4a" transform="matrix(24.109589,0,0,-24.109589,407.75346,435.92695)" fill="#a9a9a9"/>
<use xlink:href="#font_0_4f" transform="matrix(24.109589,0,0,-24.109589,413.20225,435.92695)" fill="#a9a9a9"/>
<use xlink:href="#font_0_55" transform="matrix(24.109589,0,0,-24.109589,425.25706,436.48149)" fill="#a9a9a9"/>
<path transform="matrix(2.0091325,0,0,2.0091325,128.21915,456.62104)" d="M 0 0 L 165 0 L 165 29 L 0 29 L 0 0 Z " fill="#4a4d54"/>
<symbol id="font_0_42">
<path d="M .49300004 .072000008 C .48400004 .07000001 .48000003 .07000001 .47500003 .07000001 C .44600005 .07000001 .43000005 .08500001 .43000005 .11100001 L .43000005 .41900004 C .43000005 .512 .36200003 .56200006 .23300001 .56200006 C .15600002 .56200006 .095000009 .54 .059 .50100007 C .035000005 .47400005 .024999999 .44400005 .023000002 .39200003 L .107 .39200003 C .114 .45600004 .15200001 .485 .23000002 .485 C .30600003 .485 .34700004 .45700003 .34700004 .407 L .34700004 .38500003 C .34600003 .349 .328 .33600004 .26000003 .32700003 C .14200002 .312 .124000009 .30800004 .092 .29500003 C .031000004 .269 0 .223 0 .155 C 0 .060000004 .066 0 .17200002 0 C .238 0 .291 .023000002 .35000003 .07700001 C .35600005 .023000002 .38200004 0 .43600003 0 C .45400004 0 .46500004 .0020000004 .49300004 .0090000019 L .49300004 .072000008 M .34700004 .18800001 C .34700004 .16000001 .33900003 .143 .314 .120000008 C .28000004 .089 .23900002 .073 .19 .073 C .125 .073 .087000008 .104 .087000008 .157 C .087000008 .21200001 .123 .24000001 .21300003 .25300003 C .30200003 .26500003 .31900005 .269 .34700004 .282 L .34700004 .18800001 Z "/>
</symbol>
<symbol id="font_0_48">
<path d="M .36900003 .74200007 L .36900003 .666 C .32700003 .72900006 .28100003 .757 .215 .757 C .088 .757 0 .63900008 0 .47100003 C 0 .38300003 .021000002 .319 .066 .266 C .105000007 .22000002 .15500002 .19500001 .20900002 .19500001 C .272 .19500001 .31700004 .223 .36100004 .289 L .36100004 .26200003 C .36100004 .12200001 .32200004 .07000001 .21800003 .07000001 C .14700002 .07000001 .110000018 .098000008 .10200001 .158 L .017 .158 C .025000003 .061000006 .10200001 0 .21600002 0 C .293 0 .35700003 .025000006 .39100004 .067 C .43100003 .116000007 .44600005 .18100001 .44600005 .30400003 L .44600005 .74200007 L .36900003 .74200007 M .22300002 .68 C .31100003 .68 .36100004 .606 .36100004 .47300006 C .36100004 .34600003 .31000004 .272 .22300002 .272 C .13700001 .272 .08700001 .347 .08700001 .476 C .08700001 .60400006 .13700001 .68 .22300002 .68 Z "/>
</symbol>
<use xlink:href="#font_0_55" transform="matrix(24.109589,0,0,-24.109589,154.6754,494.7463)" fill="#d7d7d9"/>
<use xlink:href="#font_0_42" transform="matrix(24.109589,0,0,-24.109589,162.05295,494.7463)" fill="#d7d7d9"/>
<use xlink:href="#font_0_48" transform="matrix(24.109589,0,0,-24.109589,175.2891,499.44767)" fill="#d7d7d9"/>
<symbol id="font_0_54">
<path d="M .404 .40100003 C .403 .50400009 .335 .56200006 .21400002 .56200006 C .092 .56200006 .013 .499 .013 .402 C .013 .32000003 .055 .28100003 .17900002 .25100003 L .257 .23200001 C .315 .21800001 .338 .19700001 .338 .16000001 C .338 .11000001 .289 .07700001 .21599999 .07700001 C .171 .07700001 .13300002 .09 .11200001 .112 C .099 .127 .093 .142 .08800001 .179 L 0 .179 C .0040000008 .058000003 .072000008 0 .20900002 0 C .34100003 0 .425 .065000008 .425 .16600001 C .425 .24400002 .381 .287 .277 .312 L .197 .33100004 C .12900001 .347 .1 .36900003 .1 .40600003 C .1 .455 .143 .485 .211 .485 C .278 .485 .314 .45600004 .316 .40100003 L .404 .40100003 Z "/>
</symbol>
<use xlink:href="#font_0_54" transform="matrix(24.109589,0,0,-24.109589,369.46376,494.7463)" fill="#a9a9a9"/>
<use xlink:href="#font_0_55" transform="matrix(24.109589,0,0,-24.109589,381.03636,494.7463)" fill="#a9a9a9"/>
<use xlink:href="#font_0_53" transform="matrix(24.109589,0,0,-24.109589,389.06486,494.19178)" fill="#a9a9a9"/>
<use xlink:href="#font_0_4a" transform="matrix(24.109589,0,0,-24.109589,397.02104,494.19178)" fill="#a9a9a9"/>
<use xlink:href="#font_0_4f" transform="matrix(24.109589,0,0,-24.109589,402.46977,494.19178)" fill="#a9a9a9"/>
<use xlink:href="#font_0_48" transform="matrix(24.109589,0,0,-24.109589,415.03089,499.44767)" fill="#a9a9a9"/>
<path transform="matrix(2.0091325,0,0,2.0091325,128.21915,567.1233)" d="M 0 0 L 165 0 L 165 32 L 0 32 L 0 0 Z " fill="#2c2c2c"/>
<use xlink:href="#font_1_55" transform="matrix(26.118721,0,0,-26.118721,154.70352,609.01168)" fill="#ffffff"/>
<use xlink:href="#font_1_42" transform="matrix(26.118721,0,0,-26.118721,163.7667,609.01168)" fill="#ffffff"/>
<use xlink:href="#font_1_48" transform="matrix(26.118721,0,0,-26.118721,178.62827,614.10488)" fill="#ffffff"/>
<use xlink:href="#font_1_54" transform="matrix(26.118721,0,0,-26.118721,194.27338,609.01168)" fill="#ffffff"/>
<path transform="matrix(2.0091325,0,0,2.0091325,128.21915,631.4155)" d="M 0 0 L 165 0 L 165 29 L 0 29 L 0 0 Z " fill="#4a4d54"/>
<symbol id="font_0_4e">
<path d="M 0 .52400007 L 0 0 L .084000017 0 L .084000017 .32900004 C .084000017 .40500004 .139 .46600003 .20700002 .46600003 C .26900003 .46600003 .30400003 .42800004 .30400003 .36100004 L .30400003 0 L .38800005 0 L .38800005 .32900004 C .38800005 .40500004 .44300003 .46600003 .51100006 .46600003 C .572 .46600003 .60800006 .42700003 .60800006 .36100004 L .60800006 0 L .69200006 0 L .69200006 .393 C .69200006 .48700003 .638 .53900006 .54 .53900006 C .47000004 .53900006 .42800004 .518 .37900005 .45900003 C .34800003 .51500007 .30600003 .53900006 .23800004 .53900006 C .16800002 .53900006 .121000017 .513 .077 .45000003 L .077 .52400007 L 0 .52400007 Z "/>
</symbol>
<use xlink:href="#font_0_4f" transform="matrix(24.109589,0,0,-24.109589,156.02553,668.9863)" fill="#d7d7d9"/>
<use xlink:href="#font_0_42" transform="matrix(24.109589,0,0,-24.109589,168.75537,669.54086)" fill="#d7d7d9"/>
<use xlink:href="#font_0_4e" transform="matrix(24.109589,0,0,-24.109589,182.83538,668.9863)" fill="#d7d7d9"/>
<use xlink:href="#font_0_46" transform="matrix(24.109589,0,0,-24.109589,202.19538,669.54086)" fill="#d7d7d9"/>
<use xlink:href="#font_0_54" transform="matrix(24.109589,0,0,-24.109589,369.46376,669.54086)" fill="#a9a9a9"/>
<use xlink:href="#font_0_55" transform="matrix(24.109589,0,0,-24.109589,381.03636,669.54086)" fill="#a9a9a9"/>
<use xlink:href="#font_0_53" transform="matrix(24.109589,0,0,-24.109589,389.06486,668.9863)" fill="#a9a9a9"/>
<use xlink:href="#font_0_4a" transform="matrix(24.109589,0,0,-24.109589,397.02104,668.9863)" fill="#a9a9a9"/>
<use xlink:href="#font_0_4f" transform="matrix(24.109589,0,0,-24.109589,402.46977,668.9863)" fill="#a9a9a9"/>
<use xlink:href="#font_0_48" transform="matrix(24.109589,0,0,-24.109589,415.03089,674.24227)" fill="#a9a9a9"/>
<path transform="matrix(2.0091325,0,0,2.0091325,79.99997,743.92697)" d="M 0 0 L 187.1403 0 L 187.1403 32 L 0 32 L 0 0 Z " fill="#2c2c2c"/>
<symbol id="font_1_44">
<path d="M .488 .36100004 C .47800002 .49300004 .391 .572 .255 .572 C .093 .572 0 .46600003 0 .282 C 0 .104 .093 0 .253 0 C .384 0 .475 .081 .488 .21000001 L .354 .21000001 C .337 .14000002 .30900003 .113000009 .253 .113000009 C .18200001 .113000009 .14000002 .17600002 .14000002 .282 C .14000002 .33400003 .15 .381 .167 .41300003 C .183 .44300003 .21400002 .45900003 .254 .45900003 C .31100003 .45900003 .338 .432 .354 .36100004 L .488 .36100004 Z "/>
</symbol>
<symbol id="font_1_53">
<path d="M 0 .54 L 0 0 L .14000002 0 L .14000002 .287 C .14000002 .36900003 .18100003 .41000004 .263 .41000004 C .27800004 .41000004 .28800003 .409 .307 .40600003 L .307 .54800006 C .29900003 .549 .29600004 .549 .29000003 .549 C .22600001 .549 .171 .507 .14000002 .43400003 L .14000002 .54 L 0 .54 Z "/>
</symbol>
<use xlink:href="#font_1_44" transform="matrix(26.118721,0,0,-26.118721,107.00669,785.81527)" fill="#ffffff"/>
<use xlink:href="#font_1_42" transform="matrix(26.118721,0,0,-26.118721,121.37201,785.81527)" fill="#ffffff"/>
<use xlink:href="#font_1_55" transform="matrix(26.118721,0,0,-26.118721,135.52838,785.81527)" fill="#ffffff"/>
<use xlink:href="#font_1_46" transform="matrix(26.118721,0,0,-26.118721,144.43488,785.81527)" fill="#ffffff"/>
<use xlink:href="#font_1_48" transform="matrix(26.118721,0,0,-26.118721,159.45313,790.90847)" fill="#ffffff"/>
<use xlink:href="#font_1_50" transform="matrix(26.118721,0,0,-26.118721,175.25498,785.81527)" fill="#ffffff"/>
<use xlink:href="#font_1_53" transform="matrix(26.118721,0,0,-26.118721,191.94486,785.21456)" fill="#ffffff"/>
<use xlink:href="#font_1_4a" transform="matrix(26.118721,0,0,-26.118721,202.20949,785.21456)" fill="#ffffff"/>
<use xlink:href="#font_1_46" transform="matrix(26.118721,0,0,-26.118721,208.2952,785.81527)" fill="#ffffff"/>
<use xlink:href="#font_1_54" transform="matrix(26.118721,0,0,-26.118721,223.00003,785.81527)" fill="#ffffff"/>
<path transform="matrix(2.0091325,0,0,2.0091325,79.99997,808.2192)" d="M 0 0 L 187.1403 0 L 187.1403 29 L 0 29 L 0 0 Z " fill="#4a4d54"/>
<use xlink:href="#font_0_4f" transform="matrix(24.109589,0,0,-24.109589,107.80632,845.7899)" fill="#d7d7d9"/>
<use xlink:href="#font_0_42" transform="matrix(24.109589,0,0,-24.109589,120.536197,846.3444)" fill="#d7d7d9"/>
<use xlink:href="#font_0_4e" transform="matrix(24.109589,0,0,-24.109589,134.6162,845.7899)" fill="#d7d7d9"/>
<use xlink:href="#font_0_46" transform="matrix(24.109589,0,0,-24.109589,153.9762,846.3444)" fill="#d7d7d9"/>
<symbol id="font_0_44">
<path d="M .44000004 .37100003 C .43600003 .42200003 .42500005 .455 .40500004 .48400004 C .36900003 .53300008 .30600003 .56200006 .233 .56200006 C .091000009 .56200006 0 .45000003 0 .27600003 C 0 .10700001 .09 0 .23200001 0 C .35700003 0 .43600003 .075 .44600005 .20300001 L .36200003 .20300001 C .34800003 .119 .30500005 .07700001 .23400001 .07700001 C .142 .07700001 .087000008 .15200001 .087000008 .27600003 C .087000008 .407 .141 .485 .23200001 .485 C .30200003 .485 .34600003 .44400005 .35600005 .37100003 L .44000004 .37100003 Z "/>
</symbol>
<symbol id="font_0_49">
<path d="M 0 .72900006 L 0 0 L .08300001 0 L .08300001 .289 C .08300001 .39600004 .139 .46600003 .22500003 .46600003 C .25300003 .46600003 .279 .45800004 .29900003 .44300003 C .323 .425 .33300004 .4 .33300004 .363 L .33300004 0 L .41600005 0 L .41600005 .39600004 C .41600005 .48400004 .35300002 .53900006 .25100003 .53900006 C .17700002 .53900006 .132 .51600006 .08300001 .45200003 L .08300001 .72900006 L 0 .72900006 Z "/>
</symbol>
<symbol id="font_0_9">
<path d="M .16300002 .94100007 C .063 .81000009 0 .628 0 .47100003 C 0 .31300003 .063 .13100001 .16300002 0 L .218 0 C .13 .143 .08100001 .31100003 .08100001 .47100003 C .08100001 .63 .13 .799 .218 .94100007 L .16300002 .94100007 Z "/>
</symbol>
<symbol id="font_0_17">
<path d="M .455 .558 C .43800003 .67600008 .36200003 .74600008 .254 .74600008 C .17600002 .74600008 .106000009 .70800009 .06400001 .643 C .019000002 .572 0 .48400004 0 .35300002 C 0 .231 .017 .15400002 .060000007 .09 C .098000008 .031000004 .16000001 0 .23800002 0 C .373 0 .47 .101 .47 .24200002 C .47 .37500004 .38 .469 .253 .469 C .18300002 .469 .128 .44300003 .09 .39000003 C .091000009 .569 .14700002 .66800007 .24800001 .66800007 C .31 .66800007 .35300002 .628 .367 .558 L .455 .558 M .24200003 .39100004 C .327 .39100004 .38 .33100004 .38 .23500002 C .38 .14400001 .32 .07800001 .23900001 .07800001 C .157 .07800001 .09500001 .14700002 .09500001 .23900001 C .09500001 .32900004 .15500002 .39100004 .24200003 .39100004 Z "/>
</symbol>
<symbol id="font_0_a">
<path d="M .055 0 C .155 .13100001 .21800001 .31300003 .21800001 .47000004 C .21800001 .628 .155 .81000009 .055 .94100007 L 0 .94100007 C .088 .79800006 .13700001 .63 .13700001 .47000004 C .13700001 .31100003 .088 .14200002 0 0 L .055 0 Z "/>
</symbol>
<use xlink:href="#font_0_57" transform="matrix(24.109589,0,0,-24.109589,302.1201,845.7899)" fill="#a9a9a9"/>
<use xlink:href="#font_0_42" transform="matrix(24.109589,0,0,-24.109589,314.94636,846.3444)" fill="#a9a9a9"/>
<use xlink:href="#font_0_53" transform="matrix(24.109589,0,0,-24.109589,329.0023,845.7899)" fill="#a9a9a9"/>
<use xlink:href="#font_0_44" transform="matrix(24.109589,0,0,-24.109589,336.11463,846.3444)" fill="#a9a9a9"/>
<use xlink:href="#font_0_49" transform="matrix(24.109589,0,0,-24.109589,349.1097,845.7899)" fill="#a9a9a9"/>
<use xlink:href="#font_0_42" transform="matrix(24.109589,0,0,-24.109589,361.83955,846.3444)" fill="#a9a9a9"/>
<use xlink:href="#font_0_53" transform="matrix(24.109589,0,0,-24.109589,375.89549,845.7899)" fill="#a9a9a9"/>
<use xlink:href="#font_0_9" transform="matrix(24.109589,0,0,-24.109589,384.02043,850.9011)" fill="#a9a9a9"/>
<use xlink:href="#font_0_12" transform="matrix(24.109589,0,0,-24.109589,392.74815,845.7899)" fill="#a9a9a9"/>
<use xlink:href="#font_0_17" transform="matrix(24.109589,0,0,-24.109589,404.73066,846.3444)" fill="#a9a9a9"/>
<use xlink:href="#font_0_a" transform="matrix(24.109589,0,0,-24.109589,418.015,850.9011)" fill="#a9a9a9"/>
<path transform="matrix(2.0091325,0,0,2.0091325,714.88589,334.0639)" d="M 0 0 L 229.64302 0 L 229.64302 32 L 0 32 L 0 0 Z " fill="#2c2c2c"/>
<symbol id="font_1_57">
<path d="M .33600004 0 L .522 .54 L .374 .54 L .26500003 .14500001 L .148 .54 L 0 .54 L .18900001 0 L .33600004 0 Z "/>
</symbol>
<symbol id="font_1_58">
<path d="M .60800006 0 L .76100006 .54 L .61600008 .54 L .53400006 .162 L .45300005 .54 L .31300003 .54 L .23100002 .162 L .14500001 .54 L 0 .54 L .15200001 0 L .29600004 0 L .38200004 .381 L .46300004 0 L .60800006 0 Z "/>
</symbol>
<use xlink:href="#font_1_53" transform="matrix(26.118721,0,0,-26.118721,742.65,375.35157)" fill="#ffffff"/>
<use xlink:href="#font_1_46" transform="matrix(26.118721,0,0,-26.118721,751.73928,375.9523)" fill="#ffffff"/>
<use xlink:href="#font_1_57" transform="matrix(26.118721,0,0,-26.118721,766.0524,375.35157)" fill="#ffffff"/>
<use xlink:href="#font_1_4a" transform="matrix(26.118721,0,0,-26.118721,781.9588,375.35157)" fill="#ffffff"/>
<use xlink:href="#font_1_46" transform="matrix(26.118721,0,0,-26.118721,788.04446,375.9523)" fill="#ffffff"/>
<use xlink:href="#font_1_58" transform="matrix(26.118721,0,0,-26.118721,802.12246,375.35157)" fill="#ffffff"/>
<use xlink:href="#font_1_54" transform="matrix(26.118721,0,0,-26.118721,823.0697,375.9523)" fill="#ffffff"/>
<path transform="matrix(2.0091325,0,0,2.0091325,714.88589,398.35615)" d="M 0 0 L 229.64302 0 L 229.64302 29 L 0 29 L 0 0 Z " fill="#4a4d54"/>
<use xlink:href="#font_0_4a" transform="matrix(24.109589,0,0,-24.109589,742.59579,435.92695)" fill="#d7d7d9"/>
<use xlink:href="#font_0_45" transform="matrix(24.109589,0,0,-24.109589,746.98379,436.48149)" fill="#d7d7d9"/>
<use xlink:href="#font_0_4a" transform="matrix(24.109589,0,0,-24.109589,1124.2965,435.92695)" fill="#a9a9a9"/>
<use xlink:href="#font_0_4f" transform="matrix(24.109589,0,0,-24.109589,1129.7453,435.92695)" fill="#a9a9a9"/>
<use xlink:href="#font_0_55" transform="matrix(24.109589,0,0,-24.109589,1141.8,436.48149)" fill="#a9a9a9"/>
<path transform="matrix(2.0091325,0,0,2.0091325,714.88589,456.62104)" d="M 0 0 L 229.64302 0 L 229.64302 29 L 0 29 L 0 0 Z " fill="#4a4d54"/>
<symbol id="font_0_56">
<path d="M .41700004 .023000002 L .41700004 .54700008 L .33400003 .54700008 L .33400003 .25 C .33400003 .143 .27800004 .073 .19100002 .073 C .125 .073 .083 .113000009 .083 .17600002 L .083 .54700008 L 0 .54700008 L 0 .143 C 0 .056 .065000008 0 .167 0 C .24400002 0 .293 .027000003 .342 .09600001 L .342 .023000002 L .41700004 .023000002 Z "/>
</symbol>
<symbol id="font_0_50">
<path d="M .23600002 .56200006 C .088 .56200006 0 .45700003 0 .28100003 C 0 .104 .088 0 .237 0 C .38500003 0 .47400005 .105000007 .47400005 .277 C .47400005 .45900003 .388 .56200006 .23600002 .56200006 M .237 .485 C .331 .485 .387 .40800003 .387 .27800004 C .387 .15400002 .329 .07700001 .237 .07700001 C .14400001 .07700001 .087 .15400002 .087 .28100003 C .087 .40800003 .14400001 .485 .237 .485 Z "/>
</symbol>
<symbol id="font_0_36">
<path d="M .46700005 .75200006 L .46700005 .24000001 C .46700005 .142 .39600004 .082 .279 .082 C .225 .082 .181 .095000009 .146 .120000008 C .11000001 .148 .093 .185 .093 .24000001 L .093 .75200006 L 0 .75200006 L 0 .24000001 C 0 .09200001 .10600001 0 .279 0 C .45000003 0 .56000009 .094000007 .56000009 .24000001 L .56000009 .75200006 L .46700005 .75200006 Z "/>
</symbol>
<symbol id="font_0_25">
<path d="M 0 0 L .28100003 0 C .46500004 0 .57800009 .13800001 .57800009 .365 C .57800009 .591 .46600003 .72900006 .28100003 .72900006 L 0 .72900006 L 0 0 M .09300001 .082 L .09300001 .647 L .265 .647 C .40900005 .647 .485 .55 .485 .36400003 C .485 .179 .40900005 .082 .265 .082 L .09300001 .082 Z "/>
</symbol>
<use xlink:href="#font_0_42" transform="matrix(24.109589,0,0,-24.109589,742.0171,494.7463)" fill="#d7d7d9"/>
<use xlink:href="#font_0_56" transform="matrix(24.109589,0,0,-24.109589,755.97659,494.7463)" fill="#d7d7d9"/>
<use xlink:href="#font_0_55" transform="matrix(24.109589,0,0,-24.109589,768.15188,494.7463)" fill="#d7d7d9"/>
<use xlink:href="#font_0_49" transform="matrix(24.109589,0,0,-24.109589,776.2045,494.19178)" fill="#d7d7d9"/>
<use xlink:href="#font_0_50" transform="matrix(24.109589,0,0,-24.109589,788.7897,494.7463)" fill="#d7d7d9"/>
<use xlink:href="#font_0_53" transform="matrix(24.109589,0,0,-24.109589,802.99026,494.19178)" fill="#d7d7d9"/>
<use xlink:href="#font_0_36" transform="matrix(24.109589,0,0,-24.109589,811.4044,494.7463)" fill="#d7d7d9"/>
<use xlink:href="#font_0_36" transform="matrix(24.109589,0,0,-24.109589,828.8115,494.7463)" fill="#d7d7d9"/>
<use xlink:href="#font_0_2a" transform="matrix(24.109589,0,0,-24.109589,846.58029,494.19178)" fill="#d7d7d9"/>
<use xlink:href="#font_0_25" transform="matrix(24.109589,0,0,-24.109589,853.01748,494.19178)" fill="#d7d7d9"/>
<use xlink:href="#font_0_36" transform="matrix(24.109589,0,0,-24.109589,1095.2767,494.7463)" fill="#a9a9a9"/>
<use xlink:href="#font_0_36" transform="matrix(24.109589,0,0,-24.109589,1112.6838,494.7463)" fill="#a9a9a9"/>
<use xlink:href="#font_0_2a" transform="matrix(24.109589,0,0,-24.109589,1130.4526,494.19178)" fill="#a9a9a9"/>
<use xlink:href="#font_0_25" transform="matrix(24.109589,0,0,-24.109589,1136.8899,494.19178)" fill="#a9a9a9"/>
<path transform="matrix(2.0091325,0,0,2.0091325,714.88589,514.88589)" d="M 0 0 L 229.64302 0 L 229.64302 29 L 0 29 L 0 0 Z " fill="#4a4d54"/>
<symbol id="font_0_5a">
<path d="M .368 .74200007 L .22300002 .33400003 L .089 .74200007 L 0 .74200007 L .17700002 .216 L .14500001 .13300002 C .13100001 .096 .113 .082 .078 .082 C .064 .082 .052 .08400001 .034 .088 L .034 .012999997 C .051 .003999993 .068 0 .09 0 C .117000009 0 .14600002 .009000003 .16800002 .025000006 C .19400002 .044 .20900002 .066 .22500001 .108 L .458 .74200007 L .368 .74200007 Z "/>
</symbol>
<use xlink:href="#font_0_44" transform="matrix(24.109589,0,0,-24.109589,741.7519,553.0111)" fill="#d7d7d9"/>
<use xlink:href="#font_0_42" transform="matrix(24.109589,0,0,-24.109589,754.0719,553.0111)" fill="#d7d7d9"/>
<use xlink:href="#font_0_55" transform="matrix(24.109589,0,0,-24.109589,766.80178,553.0111)" fill="#d7d7d9"/>
<use xlink:href="#font_0_46" transform="matrix(24.109589,0,0,-24.109589,774.1311,553.0111)" fill="#d7d7d9"/>
<use xlink:href="#font_0_48" transform="matrix(24.109589,0,0,-24.109589,787.41549,557.7125)" fill="#d7d7d9"/>
<use xlink:href="#font_0_50" transform="matrix(24.109589,0,0,-24.109589,800.8445,553.0111)" fill="#d7d7d9"/>
<use xlink:href="#font_0_53" transform="matrix(24.109589,0,0,-24.109589,815.04507,552.4566)" fill="#d7d7d9"/>
<use xlink:href="#font_0_5a" transform="matrix(24.109589,0,0,-24.109589,821.8921,557.7125)" fill="#d7d7d9"/>
<use xlink:href="#font_0_57" transform="matrix(24.109589,0,0,-24.109589,1029.1332,552.4566)" fill="#a9a9a9"/>
<use xlink:href="#font_0_42" transform="matrix(24.109589,0,0,-24.109589,1041.9595,553.0111)" fill="#a9a9a9"/>
<use xlink:href="#font_0_53" transform="matrix(24.109589,0,0,-24.109589,1056.0154,552.4566)" fill="#a9a9a9"/>
<use xlink:href="#font_0_44" transform="matrix(24.109589,0,0,-24.109589,1063.1277,553.0111)" fill="#a9a9a9"/>
<use xlink:href="#font_0_49" transform="matrix(24.109589,0,0,-24.109589,1076.1227,552.4566)" fill="#a9a9a9"/>
<use xlink:href="#font_0_42" transform="matrix(24.109589,0,0,-24.109589,1088.8526,553.0111)" fill="#a9a9a9"/>
<use xlink:href="#font_0_53" transform="matrix(24.109589,0,0,-24.109589,1102.9085,552.4566)" fill="#a9a9a9"/>
<use xlink:href="#font_0_9" transform="matrix(24.109589,0,0,-24.109589,1111.0333,557.5678)" fill="#a9a9a9"/>
<use xlink:href="#font_0_12" transform="matrix(24.109589,0,0,-24.109589,1119.761,552.4566)" fill="#a9a9a9"/>
<use xlink:href="#font_0_17" transform="matrix(24.109589,0,0,-24.109589,1131.7434,553.0111)" fill="#a9a9a9"/>
<use xlink:href="#font_0_a" transform="matrix(24.109589,0,0,-24.109589,1145.0277,557.5678)" fill="#a9a9a9"/>
<path transform="matrix(2.0091325,0,0,2.0091325,714.88589,573.1507)" d="M 0 0 L 229.64302 0 L 229.64302 29 L 0 29 L 0 0 Z " fill="#383840"/>
<symbol id="font_0_4d">
<path d="M .08400001 .72900006 L 0 .72900006 L 0 0 L .08400001 0 L .08400001 .72900006 Z "/>
</symbol>
<use xlink:href="#font_0_55" transform="matrix(24.109589,0,0,-24.109589,741.34207,611.27597)" fill="#d7d7d9"/>
<use xlink:href="#font_0_4a" transform="matrix(24.109589,0,0,-24.109589,749.2983,610.72146)" fill="#d7d7d9"/>
<use xlink:href="#font_0_55" transform="matrix(24.109589,0,0,-24.109589,753.39688,611.27597)" fill="#d7d7d9"/>
<use xlink:href="#font_0_4d" transform="matrix(24.109589,0,0,-24.109589,761.4013,610.72146)" fill="#d7d7d9"/>
<use xlink:href="#font_0_46" transform="matrix(24.109589,0,0,-24.109589,766.0786,611.27597)" fill="#d7d7d9"/>
<symbol id="font_0_59">
<path d="M .27500005 .27100004 L .45100004 .52400007 L .35700003 .52400007 L .231 .33400003 L .105000007 .52400007 L .01 .52400007 L .185 .26700003 L 0 0 L .095 0 L .228 .201 L .35900004 0 L .45600004 0 L .27500005 .27100004 Z "/>
</symbol>
<use xlink:href="#font_0_55" transform="matrix(24.109589,0,0,-24.109589,1076.1185,611.27597)" fill="#a9a9a9"/>
<use xlink:href="#font_0_4a" transform="matrix(24.109589,0,0,-24.109589,1084.0746,610.72146)" fill="#a9a9a9"/>
<use xlink:href="#font_0_4f" transform="matrix(24.109589,0,0,-24.109589,1089.5234,610.72146)" fill="#a9a9a9"/>
<use xlink:href="#font_0_5a" transform="matrix(24.109589,0,0,-24.109589,1101.7229,615.97738)" fill="#a9a9a9"/>
<use xlink:href="#font_0_55" transform="matrix(24.109589,0,0,-24.109589,1113.633,611.27597)" fill="#a9a9a9"/>
<use xlink:href="#font_0_46" transform="matrix(24.109589,0,0,-24.109589,1120.9624,611.27597)" fill="#a9a9a9"/>
<use xlink:href="#font_0_59" transform="matrix(24.109589,0,0,-24.109589,1133.8129,610.72146)" fill="#a9a9a9"/>
<use xlink:href="#font_0_55" transform="matrix(24.109589,0,0,-24.109589,1145.7953,611.27597)" fill="#a9a9a9"/>
<path transform="matrix(2.0091325,0,0,2.0091325,714.88589,631.4155)" d="M 0 0 L 229.64302 0 L 229.64302 29 L 0 29 L 0 0 Z " fill="#383840"/>
<symbol id="font_0_43">
<path d="M 0 .75200006 L 0 .023000002 L .075 .023000002 L .075 .09 C .11500001 .029000003 .16800002 0 .24100001 0 C .37900005 0 .469 .113000009 .469 .287 C .469 .45700003 .38400004 .56200006 .24500002 .56200006 C .17300001 .56200006 .12200001 .535 .083000008 .476 L .083000008 .75200006 L 0 .75200006 M .22900002 .48400004 C .32200004 .48400004 .38200004 .40300004 .38200004 .27800004 C .38200004 .15900001 .32000003 .07800001 .22900002 .07800001 C .14 .07800001 .083000008 .158 .083000008 .28100003 C .083000008 .404 .14 .48400004 .22900002 .48400004 Z "/>
</symbol>
<use xlink:href="#font_0_43" transform="matrix(24.109589,0,0,-24.109589,742.30648,669.54086)" fill="#d7d7d9"/>
<use xlink:href="#font_0_50" transform="matrix(24.109589,0,0,-24.109589,755.27737,669.54086)" fill="#d7d7d9"/>
<use xlink:href="#font_0_45" transform="matrix(24.109589,0,0,-24.109589,768.44119,669.54086)" fill="#d7d7d9"/>
<use xlink:href="#font_0_5a" transform="matrix(24.109589,0,0,-24.109589,781.7014,674.24227)" fill="#d7d7d9"/>
<use xlink:href="#font_0_55" transform="matrix(24.109589,0,0,-24.109589,1113.6367,669.54086)" fill="#a9a9a9"/>
<use xlink:href="#font_0_46" transform="matrix(24.109589,0,0,-24.109589,1120.9661,669.54086)" fill="#a9a9a9"/>
<use xlink:href="#font_0_59" transform="matrix(24.109589,0,0,-24.109589,1133.8165,668.9863)" fill="#a9a9a9"/>
<use xlink:href="#font_0_55" transform="matrix(24.109589,0,0,-24.109589,1145.799,669.54086)" fill="#a9a9a9"/>
<path transform="matrix(2.0091325,0,0,2.0091325,714.88589,689.68038)" d="M 0 0 L 229.64302 0 L 229.64302 29 L 0 29 L 0 0 Z " fill="#383840"/>
<symbol id="font_0_4c">
<path d="M .083000008 .72900006 L 0 .72900006 L 0 0 L .083000008 0 L .083000008 .20400001 L .16400002 .284 L .34100003 0 L .44400005 0 L .23000002 .34300003 L .41200004 .52400007 L .305 .52400007 L .083000008 .30200003 L .083000008 .72900006 Z "/>
</symbol>
<use xlink:href="#font_0_4e" transform="matrix(24.109589,0,0,-24.109589,742.6922,727.25119)" fill="#d7d7d9"/>
<use xlink:href="#font_0_42" transform="matrix(24.109589,0,0,-24.109589,762.10049,727.80569)" fill="#d7d7d9"/>
<use xlink:href="#font_0_53" transform="matrix(24.109589,0,0,-24.109589,776.1564,727.25119)" fill="#d7d7d9"/>
<use xlink:href="#font_0_4c" transform="matrix(24.109589,0,0,-24.109589,783.9196,727.25119)" fill="#d7d7d9"/>
<use xlink:href="#font_0_4a" transform="matrix(24.109589,0,0,-24.109589,1128.2872,727.25119)" fill="#a9a9a9"/>
<use xlink:href="#font_0_4f" transform="matrix(24.109589,0,0,-24.109589,1133.7361,727.25119)" fill="#a9a9a9"/>
<use xlink:href="#font_0_55" transform="matrix(24.109589,0,0,-24.109589,1145.7909,727.80569)" fill="#a9a9a9"/>
<path transform="matrix(2.0091325,0,0,2.0091325,714.88589,747.9452)" d="M 0 0 L 229.64302 0 L 229.64302 29 L 0 29 L 0 0 Z " fill="#383840"/>
<use xlink:href="#font_0_53" transform="matrix(24.109589,0,0,-24.109589,742.6681,785.516)" fill="#d7d7d9"/>
<use xlink:href="#font_0_42" transform="matrix(24.109589,0,0,-24.109589,750.04556,786.0705)" fill="#d7d7d9"/>
<use xlink:href="#font_0_55" transform="matrix(24.109589,0,0,-24.109589,762.7754,786.0705)" fill="#d7d7d9"/>
<use xlink:href="#font_0_4a" transform="matrix(24.109589,0,0,-24.109589,770.7316,785.516)" fill="#d7d7d9"/>
<use xlink:href="#font_0_4f" transform="matrix(24.109589,0,0,-24.109589,776.1805,785.516)" fill="#d7d7d9"/>
<use xlink:href="#font_0_48" transform="matrix(24.109589,0,0,-24.109589,788.7414,790.7719)" fill="#d7d7d9"/>
<use xlink:href="#font_0_4a" transform="matrix(24.109589,0,0,-24.109589,1128.2872,785.516)" fill="#a9a9a9"/>
<use xlink:href="#font_0_4f" transform="matrix(24.109589,0,0,-24.109589,1133.7361,785.516)" fill="#a9a9a9"/>
<use xlink:href="#font_0_55" transform="matrix(24.109589,0,0,-24.109589,1145.7909,786.0705)" fill="#a9a9a9"/>
<path transform="matrix(2.0091325,0,0,2.0091325,714.88589,806.2101)" d="M 0 0 L 229.64302 0 L 229.64302 29 L 0 29 L 0 0 Z " fill="#383840"/>
<symbol id="font_0_28">
<path d="M .665 .40800003 L .36100004 .40800003 L .36100004 .326 L .583 .326 L .583 .30600003 C .583 .17600002 .48700003 .082 .35400004 .082 C .28 .082 .213 .109000008 .17000002 .156 C .12200001 .208 .09300001 .29500003 .09300001 .38500003 C .09300001 .564 .19500001 .68200007 .349 .68200007 C .46 .68200007 .54 .62500008 .56 .531 L .65500006 .531 C .629 .679 .517 .76400008 .35000003 .76400008 C .261 .76400008 .18900001 .74100008 .13200002 .694 C .047000003 .624 0 .51100006 0 .38000003 C 0 .156 .13700001 0 .33400003 0 C .43300004 0 .511 .037 .583 .116000007 L .606 .019000002 L .665 .019000002 L .665 .40800003 Z "/>
</symbol>
<symbol id="font_0_51">
<path d="M 0 0 L .08400001 0 L .08400001 .273 C .128 .21900001 .177 .19500001 .24500002 .19500001 C .38100005 .19500001 .469 .30400003 .469 .47100003 C .469 .647 .38300003 .757 .244 .757 C .17300001 .757 .116 .725 .07700001 .66300007 L .07700001 .74200007 L 0 .74200007 L 0 0 M .23 .679 C .32200004 .679 .38200004 .59800007 .38200004 .47300006 C .38200004 .35400004 .32100005 .273 .23 .273 C .141 .273 .08400001 .35300002 .08400001 .476 C .08400001 .59900006 .141 .679 .23 .679 Z "/>
</symbol>
<use xlink:href="#font_0_4a" transform="matrix(24.109589,0,0,-24.109589,742.59579,843.78079)" fill="#d7d7d9"/>
<use xlink:href="#font_0_4e" transform="matrix(24.109589,0,0,-24.109589,748.0446,843.78079)" fill="#d7d7d9"/>
<use xlink:href="#font_0_42" transform="matrix(24.109589,0,0,-24.109589,767.45278,844.33529)" fill="#d7d7d9"/>
<use xlink:href="#font_0_48" transform="matrix(24.109589,0,0,-24.109589,780.6889,849.0367)" fill="#d7d7d9"/>
<use xlink:href="#font_0_46" transform="matrix(24.109589,0,0,-24.109589,794.21438,844.33529)" fill="#d7d7d9"/>
<use xlink:href="#font_0_28" transform="matrix(24.109589,0,0,-24.109589,807.71578,844.33529)" fill="#d7d7d9"/>
<use xlink:href="#font_0_53" transform="matrix(24.109589,0,0,-24.109589,827.0758,843.78079)" fill="#d7d7d9"/>
<use xlink:href="#font_0_50" transform="matrix(24.109589,0,0,-24.109589,834.3086,844.33529)" fill="#d7d7d9"/>
<use xlink:href="#font_0_56" transform="matrix(24.109589,0,0,-24.109589,848.4127,844.33529)" fill="#d7d7d9"/>
<use xlink:href="#font_0_51" transform="matrix(24.109589,0,0,-24.109589,861.5524,849.0367)" fill="#d7d7d9"/>
<use xlink:href="#font_0_36" transform="matrix(24.109589,0,0,-24.109589,875.7047,844.33529)" fill="#d7d7d9"/>
<use xlink:href="#font_0_36" transform="matrix(24.109589,0,0,-24.109589,893.1118,844.33529)" fill="#d7d7d9"/>
<use xlink:href="#font_0_2a" transform="matrix(24.109589,0,0,-24.109589,910.88058,843.78079)" fill="#d7d7d9"/>
<use xlink:href="#font_0_25" transform="matrix(24.109589,0,0,-24.109589,917.31777,843.78079)" fill="#d7d7d9"/>
<symbol id="font_0_15">
<path d="M .29900003 .17500001 L .29900003 0 L .38700003 0 L .38700003 .17500001 L .49200005 .17500001 L .49200005 .254 L .38700003 .254 L .38700003 .72300007 L .32200004 .72300007 L 0 .268 L 0 .17500001 L .29900003 .17500001 M .29900003 .254 L .07700001 .254 L .29900003 .573 L .29900003 .254 Z "/>
</symbol>
<symbol id="font_0_11">
<path d="M .23200001 .74600008 C .16600001 .74600008 .106000009 .716 .069000009 .66700008 C .022999999 .60300007 0 .507 0 .37300004 C 0 .12900001 .08 0 .23200001 0 C .382 0 .46400003 .12900001 .46400003 .367 C .46400003 .507 .442 .601 .395 .66700008 C .358 .717 .299 .74600008 .23200001 .74600008 M .23200001 .66800007 C .327 .66800007 .374 .57100006 .374 .37500004 C .374 .16900002 .328 .073 .23 .073 C .13700001 .073 .09 .17300001 .09 .372 C .09 .57100006 .13700001 .66800007 .23200001 .66800007 Z "/>
</symbol>
<use xlink:href="#font_0_44" transform="matrix(24.109589,0,0,-24.109589,1063.1316,844.33529)" fill="#a9a9a9"/>
<use xlink:href="#font_0_49" transform="matrix(24.109589,0,0,-24.109589,1076.1266,843.78079)" fill="#a9a9a9"/>
<use xlink:href="#font_0_42" transform="matrix(24.109589,0,0,-24.109589,1088.8565,844.33529)" fill="#a9a9a9"/>
<use xlink:href="#font_0_53" transform="matrix(24.109589,0,0,-24.109589,1102.9124,843.78079)" fill="#a9a9a9"/>
<use xlink:href="#font_0_9" transform="matrix(24.109589,0,0,-24.109589,1111.0372,848.89199)" fill="#a9a9a9"/>
<use xlink:href="#font_0_15" transform="matrix(24.109589,0,0,-24.109589,1117.9807,843.78079)" fill="#a9a9a9"/>
<use xlink:href="#font_0_11" transform="matrix(24.109589,0,0,-24.109589,1131.7473,844.33529)" fill="#a9a9a9"/>
<use xlink:href="#font_0_a" transform="matrix(24.109589,0,0,-24.109589,1145.0316,848.89199)" fill="#a9a9a9"/>
<path transform="matrix(2.0091325,0,0,2.0091325,1373.8812,502.831)" d="M 0 0 L 213.44013 0 L 213.44013 32 L 0 32 L 0 0 Z " fill="#2c2c2c"/>
<symbol id="font_1_56">
<path d="M .483 .023000002 L .483 .563 L .34300003 .563 L .34300003 .22500001 C .34300003 .16100002 .29900003 .119 .23000002 .119 C .17000002 .119 .14000002 .15100001 .14000002 .216 L .14000002 .563 L 0 .563 L 0 .187 C 0 .067 .065 0 .18100001 0 C .254 0 .30300004 .026000003 .34300003 .087000008 L .34300003 .023000002 L .483 .023000002 Z "/>
</symbol>
<use xlink:href="#font_1_56" transform="matrix(26.118721,0,0,-26.118721,1401.5148,544.7194)" fill="#ffffff"/>
<use xlink:href="#font_1_54" transform="matrix(26.118721,0,0,-26.118721,1416.716,544.7194)" fill="#ffffff"/>
<use xlink:href="#font_1_46" transform="matrix(26.118721,0,0,-26.118721,1431.0552,544.7194)" fill="#ffffff"/>
<use xlink:href="#font_1_53" transform="matrix(26.118721,0,0,-26.118721,1446.6481,544.1187)" fill="#ffffff"/>
<use xlink:href="#font_1_54" transform="matrix(26.118721,0,0,-26.118721,1455.9203,544.7194)" fill="#ffffff"/>
<path transform="matrix(2.0091325,0,0,2.0091325,1373.8812,567.1233)" d="M 0 0 L 213.44013 0 L 213.44013 29 L 0 29 L 0 0 Z " fill="#4a4d54"/>
<use xlink:href="#font_0_56" transform="matrix(24.109589,0,0,-24.109589,1401.567,605.2486)" fill="#d7d7d9"/>
<use xlink:href="#font_0_56" transform="matrix(24.109589,0,0,-24.109589,1414.9719,605.2486)" fill="#d7d7d9"/>
<use xlink:href="#font_0_4a" transform="matrix(24.109589,0,0,-24.109589,1428.4009,604.6941)" fill="#d7d7d9"/>
<use xlink:href="#font_0_45" transform="matrix(24.109589,0,0,-24.109589,1432.789,605.2486)" fill="#d7d7d9"/>
<use xlink:href="#font_0_36" transform="matrix(24.109589,0,0,-24.109589,1721.7185,605.2486)" fill="#a9a9a9"/>
<use xlink:href="#font_0_36" transform="matrix(24.109589,0,0,-24.109589,1739.1257,605.2486)" fill="#a9a9a9"/>
<use xlink:href="#font_0_2a" transform="matrix(24.109589,0,0,-24.109589,1756.8947,604.6941)" fill="#a9a9a9"/>
<use xlink:href="#font_0_25" transform="matrix(24.109589,0,0,-24.109589,1763.3318,604.6941)" fill="#a9a9a9"/>
<path transform="matrix(2.0091325,0,0,2.0091325,1373.8812,625.3881)" d="M 0 0 L 213.44013 0 L 213.44013 29 L 0 29 L 0 0 Z " fill="#383840"/>
<use xlink:href="#font_0_42" transform="matrix(24.109589,0,0,-24.109589,1401.0125,663.5134)" fill="#d7d7d9"/>
<use xlink:href="#font_0_56" transform="matrix(24.109589,0,0,-24.109589,1414.9719,663.5134)" fill="#d7d7d9"/>
<use xlink:href="#font_0_55" transform="matrix(24.109589,0,0,-24.109589,1427.1472,663.5134)" fill="#d7d7d9"/>
<use xlink:href="#font_0_49" transform="matrix(24.109589,0,0,-24.109589,1435.1998,662.9589)" fill="#d7d7d9"/>
<use xlink:href="#font_0_2a" transform="matrix(24.109589,0,0,-24.109589,1449.3281,662.9589)" fill="#d7d7d9"/>
<use xlink:href="#font_0_45" transform="matrix(24.109589,0,0,-24.109589,1454.2463,663.5134)" fill="#d7d7d9"/>
<use xlink:href="#font_0_57" transform="matrix(24.109589,0,0,-24.109589,1655.5748,662.9589)" fill="#a9a9a9"/>
<use xlink:href="#font_0_42" transform="matrix(24.109589,0,0,-24.109589,1668.4011,663.5134)" fill="#a9a9a9"/>
<use xlink:href="#font_0_53" transform="matrix(24.109589,0,0,-24.109589,1682.457,662.9589)" fill="#a9a9a9"/>
<use xlink:href="#font_0_44" transform="matrix(24.109589,0,0,-24.109589,1689.5696,663.5134)" fill="#a9a9a9"/>
<use xlink:href="#font_0_49" transform="matrix(24.109589,0,0,-24.109589,1702.5646,662.9589)" fill="#a9a9a9"/>
<use xlink:href="#font_0_42" transform="matrix(24.109589,0,0,-24.109589,1715.2944,663.5134)" fill="#a9a9a9"/>
<use xlink:href="#font_0_53" transform="matrix(24.109589,0,0,-24.109589,1729.3504,662.9589)" fill="#a9a9a9"/>
<use xlink:href="#font_0_9" transform="matrix(24.109589,0,0,-24.109589,1737.4754,668.0701)" fill="#a9a9a9"/>
<use xlink:href="#font_0_17" transform="matrix(24.109589,0,0,-24.109589,1744.7807,663.5134)" fill="#a9a9a9"/>
<use xlink:href="#font_0_15" transform="matrix(24.109589,0,0,-24.109589,1757.8237,662.9589)" fill="#a9a9a9"/>
<use xlink:href="#font_0_a" transform="matrix(24.109589,0,0,-24.109589,1771.4699,668.0701)" fill="#a9a9a9"/>
<path transform="matrix(2.0091325,0,0,2.0091325,1373.8812,683.65298)" d="M 0 0 L 213.44013 0 L 213.44013 29 L 0 29 L 0 0 Z " fill="#383840"/>
<symbol id="font_0_34">
<path d="M .54800006 .53800007 C .54800006 .588 .5450001 .60200008 .52900007 .63600006 C .489 .72 .404 .76400008 .28100003 .76400008 C .121000017 .76400008 .022 .68200007 .022 .55 C .022 .46100004 .069000009 .40500004 .16500002 .38000003 L .34600003 .33200003 C .439 .30800004 .48 .27100004 .48 .21400002 C .48 .17500001 .45900003 .135 .428 .113000009 C .39900003 .09200001 .35300002 .082 .294 .082 C .21400002 .082 .16100002 .101 .12600002 .143 C .099 .17500001 .087000008 .21000001 .08800001 .255 L 0 .255 C .001000002 .18800001 .014000002 .14400001 .043000007 .104 C .093 .035000005 .17700002 0 .28800003 0 C .375 0 .446 .020000002 .493 .056 C .54200008 .095000009 .5730001 .16000001 .5730001 .223 C .5730001 .31300003 .517 .379 .418 .40600003 L .23500002 .455 C .14700002 .47900004 .115 .507 .115 .563 C .115 .637 .18 .68600007 .278 .68600007 C .39400003 .68600007 .45900003 .634 .46 .53800007 L .54800006 .53800007 Z "/>
</symbol>
<use xlink:href="#font_0_42" transform="matrix(24.109589,0,0,-24.109589,1401.0125,721.77828)" fill="#d7d7d9"/>
<use xlink:href="#font_0_56" transform="matrix(24.109589,0,0,-24.109589,1414.9719,721.77828)" fill="#d7d7d9"/>
<use xlink:href="#font_0_55" transform="matrix(24.109589,0,0,-24.109589,1427.1472,721.77828)" fill="#d7d7d9"/>
<use xlink:href="#font_0_49" transform="matrix(24.109589,0,0,-24.109589,1435.1998,721.22378)" fill="#d7d7d9"/>
<use xlink:href="#font_0_34" transform="matrix(24.109589,0,0,-24.109589,1448.0744,721.77828)" fill="#d7d7d9"/>
<use xlink:href="#font_0_46" transform="matrix(24.109589,0,0,-24.109589,1463.9625,721.77828)" fill="#d7d7d9"/>
<use xlink:href="#font_0_53" transform="matrix(24.109589,0,0,-24.109589,1478.0667,721.22378)" fill="#d7d7d9"/>
<use xlink:href="#font_0_57" transform="matrix(24.109589,0,0,-24.109589,1484.6726,721.22378)" fill="#d7d7d9"/>
<use xlink:href="#font_0_4a" transform="matrix(24.109589,0,0,-24.109589,1498.0775,721.22378)" fill="#d7d7d9"/>
<use xlink:href="#font_0_44" transform="matrix(24.109589,0,0,-24.109589,1502.5862,721.77828)" fill="#d7d7d9"/>
<use xlink:href="#font_0_46" transform="matrix(24.109589,0,0,-24.109589,1514.8579,721.77828)" fill="#d7d7d9"/>
<use xlink:href="#font_0_57" transform="matrix(24.109589,0,0,-24.109589,1655.5748,721.22378)" fill="#a9a9a9"/>
<use xlink:href="#font_0_42" transform="matrix(24.109589,0,0,-24.109589,1668.4011,721.77828)" fill="#a9a9a9"/>
<use xlink:href="#font_0_53" transform="matrix(24.109589,0,0,-24.109589,1682.457,721.22378)" fill="#a9a9a9"/>
<use xlink:href="#font_0_44" transform="matrix(24.109589,0,0,-24.109589,1689.5696,721.77828)" fill="#a9a9a9"/>
<use xlink:href="#font_0_49" transform="matrix(24.109589,0,0,-24.109589,1702.5646,721.22378)" fill="#a9a9a9"/>
<use xlink:href="#font_0_42" transform="matrix(24.109589,0,0,-24.109589,1715.2944,721.77828)" fill="#a9a9a9"/>
<use xlink:href="#font_0_53" transform="matrix(24.109589,0,0,-24.109589,1729.3504,721.22378)" fill="#a9a9a9"/>
<use xlink:href="#font_0_9" transform="matrix(24.109589,0,0,-24.109589,1737.4754,726.33499)" fill="#a9a9a9"/>
<use xlink:href="#font_0_12" transform="matrix(24.109589,0,0,-24.109589,1746.2031,721.22378)" fill="#a9a9a9"/>
<use xlink:href="#font_0_17" transform="matrix(24.109589,0,0,-24.109589,1758.1854,721.77828)" fill="#a9a9a9"/>
<use xlink:href="#font_0_a" transform="matrix(24.109589,0,0,-24.109589,1771.4699,726.33499)" fill="#a9a9a9"/>
<path transform="matrix(2.0091325,0,0,2.0091325,1373.8812,741.9178)" d="M 0 0 L 213.44013 0 L 213.44013 29 L 0 29 L 0 0 Z " fill="#383840"/>
<use xlink:href="#font_0_4f" transform="matrix(24.109589,0,0,-24.109589,1401.6875,779.4886)" fill="#d7d7d9"/>
<use xlink:href="#font_0_42" transform="matrix(24.109589,0,0,-24.109589,1414.4174,780.0431)" fill="#d7d7d9"/>
<use xlink:href="#font_0_4e" transform="matrix(24.109589,0,0,-24.109589,1428.4973,779.4886)" fill="#d7d7d9"/>
<use xlink:href="#font_0_46" transform="matrix(24.109589,0,0,-24.109589,1447.8574,780.0431)" fill="#d7d7d9"/>
<use xlink:href="#font_0_54" transform="matrix(24.109589,0,0,-24.109589,1720.4655,780.0431)" fill="#a9a9a9"/>
<use xlink:href="#font_0_55" transform="matrix(24.109589,0,0,-24.109589,1732.0381,780.0431)" fill="#a9a9a9"/>
<use xlink:href="#font_0_53" transform="matrix(24.109589,0,0,-24.109589,1740.0665,779.4886)" fill="#a9a9a9"/>
<use xlink:href="#font_0_4a" transform="matrix(24.109589,0,0,-24.109589,1748.0227,779.4886)" fill="#a9a9a9"/>
<use xlink:href="#font_0_4f" transform="matrix(24.109589,0,0,-24.109589,1753.4716,779.4886)" fill="#a9a9a9"/>
<use xlink:href="#font_0_48" transform="matrix(24.109589,0,0,-24.109589,1766.0328,784.7445)" fill="#a9a9a9"/>
<path transform="matrix(2.0091325,0,0,2.0091325,1373.8812,800.1826)" d="M 0 0 L 213.44013 0 L 213.44013 29 L 0 29 L 0 0 Z " fill="#383840"/>
<symbol id="font_0_22">
<path d="M .45700006 .21900001 L .532 0 L .63600006 0 L .38000003 .72900006 L .26000003 .72900006 L 0 0 L .09900001 0 L .176 .21900001 L .45700006 .21900001 M .43100003 .29700003 L .199 .29700003 L .31900005 .629 L .43100003 .29700003 Z "/>
</symbol>
<use xlink:href="#font_0_4a" transform="matrix(24.109589,0,0,-24.109589,1401.5911,837.7534)" fill="#d7d7d9"/>
<use xlink:href="#font_0_54" transform="matrix(24.109589,0,0,-24.109589,1406.172,838.3079)" fill="#d7d7d9"/>
<use xlink:href="#font_0_22" transform="matrix(24.109589,0,0,-24.109589,1417.817,837.7534)" fill="#d7d7d9"/>
<use xlink:href="#font_0_45" transform="matrix(24.109589,0,0,-24.109589,1434.1151,838.3079)" fill="#d7d7d9"/>
<use xlink:href="#font_0_4e" transform="matrix(24.109589,0,0,-24.109589,1448.5808,837.7534)" fill="#d7d7d9"/>
<use xlink:href="#font_0_4a" transform="matrix(24.109589,0,0,-24.109589,1468.5676,837.7534)" fill="#d7d7d9"/>
<use xlink:href="#font_0_4f" transform="matrix(24.109589,0,0,-24.109589,1474.0165,837.7534)" fill="#d7d7d9"/>
<use xlink:href="#font_0_43" transform="matrix(24.109589,0,0,-24.109589,1734.3207,838.3079)" fill="#a9a9a9"/>
<use xlink:href="#font_0_50" transform="matrix(24.109589,0,0,-24.109589,1747.2916,838.3079)" fill="#a9a9a9"/>
<use xlink:href="#font_0_50" transform="matrix(24.109589,0,0,-24.109589,1760.6965,838.3079)" fill="#a9a9a9"/>
<use xlink:href="#font_0_4d" transform="matrix(24.109589,0,0,-24.109589,1774.873,837.7534)" fill="#a9a9a9"/>
<path transform="matrix(2.0091325,0,0,2.0091325,1438.1735,213.51596)" d="M 0 0 L 177.3421 0 L 177.3421 32 L 0 32 L 0 0 Z " fill="#2c2c2c"/>
<use xlink:href="#font_1_53" transform="matrix(26.118721,0,0,-26.118721,1465.9376,254.80365)" fill="#ffffff"/>
<use xlink:href="#font_1_42" transform="matrix(26.118721,0,0,-26.118721,1475.1837,255.40438)" fill="#ffffff"/>
<use xlink:href="#font_1_55" transform="matrix(26.118721,0,0,-26.118721,1489.3401,255.40438)" fill="#ffffff"/>
<use xlink:href="#font_1_4a" transform="matrix(26.118721,0,0,-26.118721,1499.4219,254.80365)" fill="#ffffff"/>
<use xlink:href="#font_1_4f" transform="matrix(26.118721,0,0,-26.118721,1506.5784,254.80365)" fill="#ffffff"/>
<use xlink:href="#font_1_48" transform="matrix(26.118721,0,0,-26.118721,1521.9624,260.49754)" fill="#ffffff"/>
<use xlink:href="#font_1_54" transform="matrix(26.118721,0,0,-26.118721,1537.6076,255.40438)" fill="#ffffff"/>
<path transform="matrix(2.0091325,0,0,2.0091325,1438.1735,277.80824)" d="M 0 0 L 177.3421 0 L 177.3421 29 L 0 29 L 0 0 Z " fill="#4a4d54"/>
<use xlink:href="#font_0_56" transform="matrix(24.109589,0,0,-24.109589,1465.8593,315.9335)" fill="#d7d7d9"/>
<use xlink:href="#font_0_54" transform="matrix(24.109589,0,0,-24.109589,1478.5167,315.9335)" fill="#d7d7d9"/>
<use xlink:href="#font_0_46" transform="matrix(24.109589,0,0,-24.109589,1490.7163,315.9335)" fill="#d7d7d9"/>
<use xlink:href="#font_0_53" transform="matrix(24.109589,0,0,-24.109589,1504.8204,315.37898)" fill="#d7d7d9"/>
<use xlink:href="#font_0_36" transform="matrix(24.109589,0,0,-24.109589,1513.2346,315.9335)" fill="#d7d7d9"/>
<use xlink:href="#font_0_36" transform="matrix(24.109589,0,0,-24.109589,1530.6417,315.9335)" fill="#d7d7d9"/>
<use xlink:href="#font_0_2a" transform="matrix(24.109589,0,0,-24.109589,1548.4105,315.37898)" fill="#d7d7d9"/>
<use xlink:href="#font_0_25" transform="matrix(24.109589,0,0,-24.109589,1554.8477,315.37898)" fill="#d7d7d9"/>
<use xlink:href="#font_0_54" transform="matrix(24.109589,0,0,-24.109589,1704.2151,315.9335)" fill="#a9a9a9"/>
<use xlink:href="#font_0_55" transform="matrix(24.109589,0,0,-24.109589,1715.7877,315.9335)" fill="#a9a9a9"/>
<use xlink:href="#font_0_53" transform="matrix(24.109589,0,0,-24.109589,1723.8163,315.37898)" fill="#a9a9a9"/>
<use xlink:href="#font_0_4a" transform="matrix(24.109589,0,0,-24.109589,1731.7725,315.37898)" fill="#a9a9a9"/>
<use xlink:href="#font_0_4f" transform="matrix(24.109589,0,0,-24.109589,1737.2212,315.37898)" fill="#a9a9a9"/>
<use xlink:href="#font_0_48" transform="matrix(24.109589,0,0,-24.109589,1749.7824,320.63487)" fill="#a9a9a9"/>
<path transform="matrix(2.0091325,0,0,2.0091325,1438.1735,336.07307)" d="M 0 0 L 177.3421 0 L 177.3421 29 L 0 29 L 0 0 Z " fill="#4a4d54"/>
<use xlink:href="#font_0_53" transform="matrix(24.109589,0,0,-24.109589,1465.9557,373.6438)" fill="#d7d7d9"/>
<use xlink:href="#font_0_46" transform="matrix(24.109589,0,0,-24.109589,1473.285,374.19834)" fill="#d7d7d9"/>
<use xlink:href="#font_0_57" transform="matrix(24.109589,0,0,-24.109589,1485.9667,373.6438)" fill="#d7d7d9"/>
<use xlink:href="#font_0_4a" transform="matrix(24.109589,0,0,-24.109589,1499.3716,373.6438)" fill="#d7d7d9"/>
<use xlink:href="#font_0_46" transform="matrix(24.109589,0,0,-24.109589,1504.097,374.19834)" fill="#d7d7d9"/>
<use xlink:href="#font_0_58" transform="matrix(24.109589,0,0,-24.109589,1516.6823,373.6438)" fill="#d7d7d9"/>
<use xlink:href="#font_0_2a" transform="matrix(24.109589,0,0,-24.109589,1536.3557,373.6438)" fill="#d7d7d9"/>
<use xlink:href="#font_0_45" transform="matrix(24.109589,0,0,-24.109589,1541.274,374.19834)" fill="#d7d7d9"/>
<use xlink:href="#font_0_4a" transform="matrix(24.109589,0,0,-24.109589,1742.5046,373.6438)" fill="#a9a9a9"/>
<use xlink:href="#font_0_4f" transform="matrix(24.109589,0,0,-24.109589,1747.9534,373.6438)" fill="#a9a9a9"/>
<use xlink:href="#font_0_55" transform="matrix(24.109589,0,0,-24.109589,1760.0082,374.19834)" fill="#a9a9a9"/>
<path transform="matrix(2.0091325,0,0,2.0091325,1438.1735,394.3379)" d="M 0 0 L 177.3421 0 L 177.3421 29 L 0 29 L 0 0 Z " fill="#383840"/>
<use xlink:href="#font_0_53" transform="matrix(24.109589,0,0,-24.109589,1465.9557,431.9087)" fill="#d7d7d9"/>
<use xlink:href="#font_0_42" transform="matrix(24.109589,0,0,-24.109589,1473.3333,432.46324)" fill="#d7d7d9"/>
<use xlink:href="#font_0_55" transform="matrix(24.109589,0,0,-24.109589,1486.0631,432.46324)" fill="#d7d7d9"/>
<use xlink:href="#font_0_4a" transform="matrix(24.109589,0,0,-24.109589,1494.0192,431.9087)" fill="#d7d7d9"/>
<use xlink:href="#font_0_4f" transform="matrix(24.109589,0,0,-24.109589,1499.468,431.9087)" fill="#d7d7d9"/>
<use xlink:href="#font_0_48" transform="matrix(24.109589,0,0,-24.109589,1512.0292,437.16459)" fill="#d7d7d9"/>
<use xlink:href="#font_0_4a" transform="matrix(24.109589,0,0,-24.109589,1746.4954,431.9087)" fill="#a9a9a9"/>
<use xlink:href="#font_0_4f" transform="matrix(24.109589,0,0,-24.109589,1751.9442,431.9087)" fill="#a9a9a9"/>
<use xlink:href="#font_0_55" transform="matrix(24.109589,0,0,-24.109589,1763.9989,432.46324)" fill="#a9a9a9"/>
</g>
</svg>
